/* XPM */
static char *result[] = {
/* columns rows colors chars-per-pixel */
"16 16 154 2 ",
"   c #3F2567",
".  c #3F2668",
"X  c #3E2768",
"o  c #3B2B69",
"O  c #3D2868",
"+  c #3D2968",
"@  c #3E2868",
"#  c #3C2A69",
"$  c #3A2D69",
"%  c #392E6A",
"&  c #2F3E6D",
"*  c #2F3F6D",
"=  c #37326A",
"-  c #37336B",
";  c #35356B",
":  c #36346B",
">  c #34366B",
",  c #34376C",
"<  c #38306A",
"1  c #38316A",
"2  c #33386C",
"3  c #33396C",
"4  c #313B6C",
"5  c #323B6C",
"6  c #303C6D",
"7  c #313C6D",
"8  c #303D6D",
"9  c #303E6D",
"0  c #461B65",
"q  c #431F66",
"w  c #451C66",
"e  c #441D66",
"r  c #451D66",
"t  c #441E66",
"y  c #422066",
"u  c #432066",
"i  c #422166",
"p  c #422067",
"a  c #422167",
"s  c #412267",
"d  c #412367",
"f  c #402467",
"g  c #402567",
"h  c #422468",
"j  c #432D6C",
"k  c #1F5873",
"l  c #1F5973",
"z  c #1E5A73",
"x  c #1D5B74",
"c  c #1E5A74",
"v  c #1B5E74",
"b  c #1B5F74",
"n  c #1B5F75",
"m  c #1C5C74",
"M  c #1D5C74",
"N  c #1C5D74",
"B  c #2E406E",
"V  c #2D426E",
"C  c #2C436E",
"Z  c #2F426F",
"A  c #2B446E",
"S  c #2A466F",
"D  c #2A476F",
"F  c #29486F",
"G  c #274B70",
"H  c #264C70",
"J  c #264D70",
"K  c #264D71",
"L  c #254E71",
"P  c #254F71",
"I  c #284970",
"U  c #284A70",
"Y  c #235172",
"T  c #225372",
"R  c #245071",
"E  c #215472",
"W  c #215572",
"Q  c #225472",
"!  c #205672",
"~  c #205673",
"^  c #205773",
"/  c #1A6075",
"(  c #454E7B",
")  c #536589",
"_  c #566F8E",
"`  c #567791",
"'  c #63618C",
"]  c #606E91",
"[  c #696B92",
"{  c #706491",
"}  c #657D98",
"|  c #777D9D",
" . c #757E9E",
".. c #787B9D",
"X. c #85759F",
"o. c #67879D",
"O. c #6E849E",
"+. c #648D9F",
"@. c #71849F",
"#. c #72849F",
"$. c #6F8CA2",
"%. c #6C90A3",
"&. c #6F90A3",
"*. c #7293A5",
"=. c #779FAC",
"-. c #8181A3",
";. c #8382A4",
":. c #8C86A8",
">. c #888CA9",
",. c #938CAD",
"<. c #8A9EB2",
"1. c #939FB5",
"2. c #979FB6",
"3. c #A096B5",
"4. c #A197B6",
"5. c #A699B8",
"6. c #91A4B6",
"7. c #9BA4B9",
"8. c #99B1BE",
"9. c #A0A6BC",
"0. c #ABA2BE",
"q. c #A3AFC1",
"w. c #A3B1C1",
"e. c #A2B2C1",
"r. c #A0B5C2",
"t. c #A5B5C4",
"y. c #ADBFCB",
"u. c #B7B4C9",
"i. c #B4B6C9",
"p. c #B9B4C9",
"a. c #BDB7CC",
"s. c #B6BACB",
"d. c #BCBBCD",
"f. c #BFBECF",
"g. c #AEC5CD",
"h. c #B1C1CC",
"j. c #BAC3D0",
"k. c #B6CAD2",
"l. c #C5CBD7",
"z. c #C6CCD8",
"x. c #C9C9D8",
"c. c #CBD1DB",
"v. c #CFD2DD",
"b. c #D5D4E0",
"n. c #DBD7E3",
"m. c #E2E4EB",
"M. c #E7E5EC",
"N. c #E7E6ED",
"B. c #E6E7ED",
"V. c #F8F8FA",
"C. c #FBFBFC",
"Z. c #FCFDFD",
"A. c white",
"S. c None",
/* pixels */
"S.S.S.S.S.w t u s g X S.S.S.S.S.",
"S.S.S.0 r q i h 5.3.# $ < S.S.S.",
"S.S.w e q s f X.A.p.% 1 : , S.S.",
"S.r t y d   X 0.A.u.= ; 2 5 9 S.",
"S.q a f . O o ,.b.;.> 3 7 * V S.",
"p s g j 4.n.M.N.N.i.>.B.7.C S F ",
"f . @ a.A.A.A.A.A.s.9.A.j.D U J ",
"X + { C.d.-...|  .] ) #._ G L R ",
"# $ :.f.x.2 4 & 2.l.@.I H P Y E ",
"% 1 ' V.v.6 * V c.A.<.K R T W ^ ",
"- ; [ A.m.Z C S O.6.` Y Q ~ l z ",
"S.3 ( Z.A.z.q.w.e.$.o.r.%.z M S.",
"S.8 B 1.A.A.A.A.A.&.8.A.k.N v S.",
"S.S.A D } t.h.y.*.^ +.g.=.n S.S.",
"S.S.S.G L R T W k c m v / S.S.S.",
"S.S.S.S.S.T ! l x N b S.S.S.S.S."
};
