/* XPM */
static char *_c12b5849e0c45b784f94f3ca12ab2cd[] = {
/* columns rows colors chars-per-pixel */
"16 16 34 1 ",
"  c #352C41",
". c #3A3149",
"X c #433756",
"o c #44365D",
"O c #514072",
"+ c #564477",
"@ c #5C4B7C",
"# c #60507F",
"$ c #645484",
"% c #6C5D88",
"& c #71638B",
"* c #796B93",
"= c #7D7095",
"- c #867A9E",
"; c #8C80A4",
": c #968BAB",
"> c #9A8FAF",
", c #A69CB8",
"< c #A89EB9",
"1 c #AEA5BF",
"2 c #B1A8C1",
"3 c #B4ADC2",
"4 c #B9B1C7",
"5 c #BDB5C9",
"6 c #CDC7D7",
"7 c #D7D7D7",
"8 c #DADADA",
"9 c gray87",
"0 c #E2E2E2",
"q c #EBE6F0",
"w c #F3F3F3",
"e c #F6F6F6",
"r c #F8F8F8",
"t c gray100",
/* pixels */
"tttr3%%O@;;9tttt",
"tww@ooooXooo2trt",
"tww@ooooXooo2ttt",
"r##oooo@:ooo.66t",
"5XXXX..*6XXooOOw",
"%oo%2446q%%Xooo4",
"%oo%2446q%%Xooo4",
"o@@q:--19,,=&XX-",
"O;;5.  %q;;<&oo>",
"-==7oXX-0++%*oo7",
"-==8oXX-0++%*oo7",
"qXX6866q:oo#o==q",
"r22X@$$+XooX+qqt",
"tqq5OXXoooo*qtrt",
"tqq5OXXoooo*qrtt",
"trte922;>66wrttt"
};
