/* XPM */
static char *_e564266a7a646c0fb2074ecb0fb5a263Ow9ysC9aYxzM5ED[] = {
/* columns rows colors chars-per-pixel */
"32 32 221 2 ",
"   c None",
".  c #010202",
"X  c #040B02",
"o  c #01030B",
"O  c #010A0C",
"+  c #0B0C04",
"@  c #021605",
"#  c #010D13",
"$  c #000E19",
"%  c #000611",
"&  c #011215",
"*  c #01141C",
"=  c #041C1D",
"-  c #081411",
";  c #101712",
":  c #0A2B04",
">  c #132706",
",  c #193708",
"<  c #08291A",
"1  c #0D3B05",
"2  c #263B04",
"3  c #24230A",
"4  c #001C24",
"5  c #011A24",
"6  c #012224",
"7  c #01252C",
"8  c #022A2C",
"9  c #052924",
"0  c #012B33",
"q  c #002F3A",
"w  c #022731",
"e  c #013336",
"r  c #02343B",
"t  c #023B3C",
"y  c #083A3A",
"u  c #11362E",
"i  c #233D2E",
"p  c #1B4715",
"a  c #174204",
"s  c #23480A",
"d  c #3F4801",
"f  c #2C5713",
"g  c #3D6419",
"h  c #0A4825",
"j  c #0D433D",
"k  c #1F5034",
"l  c #104C34",
"z  c #235537",
"x  c #33522C",
"c  c #2C6320",
"v  c #494802",
"b  c #584803",
"n  c #575601",
"m  c #4B590B",
"M  c #685302",
"N  c #5D6504",
"B  c #55771A",
"V  c #756100",
"C  c #717705",
"Z  c #4E612A",
"A  c #003640",
"S  c #033C44",
"D  c #003E4C",
"F  c #034244",
"G  c #01434B",
"H  c #044C4B",
"J  c #114A4B",
"K  c #035549",
"L  c #0C5348",
"P  c #16534B",
"I  c #014D55",
"U  c #044854",
"Y  c #025256",
"T  c #01525C",
"R  c #075B58",
"E  c #12585A",
"W  c #27574B",
"Q  c #096A59",
"!  c #156E55",
"~  c #287859",
"^  c #226650",
"/  c #015B64",
"(  c #075965",
")  c #2A5F60",
"_  c #056467",
"`  c #166467",
"'  c #016373",
"]  c #016C74",
"[  c #006F78",
"{  c #0A6772",
"}  c #027274",
"|  c #00757A",
" . c #077C79",
".. c #1C787B",
"X. c #0C6F6F",
"o. c #297877",
"O. c #36787C",
"+. c #266D73",
"@. c #545B46",
"#. c #527C57",
"$. c #616F4B",
"%. c #4F7960",
"&. c #487F72",
"*. c #997307",
"=. c #A87B08",
"-. c #708B0F",
";. c #7E8312",
":. c #798D2A",
">. c #338953",
",. c #358046",
"<. c #108E7B",
"1. c #1A907F",
"2. c #108772",
"3. c #378766",
"4. c #5D8E50",
"5. c #6E9252",
"6. c #58837A",
"7. c #52876E",
"8. c #728E6E",
"9. c #52B16E",
"0. c #4EA478",
"q. c #6FB071",
"w. c #8B8002",
"e. c #AF9001",
"r. c #B89A09",
"t. c #B1A80E",
"y. c #909B2F",
"u. c #83922D",
"i. c #9DAC20",
"p. c #88B83B",
"a. c #D19A0E",
"s. c #D1BE1E",
"d. c #C1AB0F",
"f. c #EEB605",
"g. c #D9BD21",
"h. c #B3C31B",
"j. c #BFCC38",
"k. c #C5D233",
"l. c #ADBF5C",
"z. c #899E7F",
"x. c #95C963",
"c. c #A3D16D",
"v. c #DFCB57",
"b. c #E7CE47",
"n. c #D4D976",
"m. c #CAE461",
"M. c #027B85",
"N. c #127B8A",
"B. c #307781",
"V. c #357F86",
"C. c #018385",
"Z. c #018589",
"A. c #028C8D",
"S. c #069789",
"D. c #049596",
"F. c #169599",
"G. c #0C8A93",
"H. c #2F8C8D",
"J. c #05A795",
"K. c #06AB94",
"L. c #23A09E",
"P. c #009DA3",
"I. c #00AAAD",
"U. c #06A9A3",
"Y. c #00ADB1",
"T. c #16A7B3",
"R. c #01BBBC",
"E. c #04B5B6",
"W. c #18B3B0",
"Q. c #26A8B3",
"!. c #2FB3BF",
"~. c #3CB3BE",
"^. c #3DA6AF",
"/. c #488B84",
"(. c #4B9C89",
"). c #42949D",
"_. c #579393",
"`. c #7C9C83",
"'. c #40A49F",
"]. c #5FA399",
"[. c #75A398",
"{. c #509DA6",
"}. c #699DA4",
"|. c #42A7AA",
" X c #57A7A7",
".X c #4AAEB8",
"XX c #4AB5B8",
"oX c #51B2B9",
"OX c #68A8AA",
"+X c #69B5A4",
"@X c #1EC6B7",
"#X c #7DCC89",
"$X c #71D1AE",
"%X c #2AB7C1",
"&X c #4FBCC8",
"*X c #74BCC5",
"=X c #0FD1CD",
"-X c #24DDD2",
";X c #35DAD0",
":X c #5AC4CD",
">X c #5FD3D4",
",X c #6ACED7",
"<X c #76DAE2",
"1X c #809F90",
"2X c #A3B9AE",
"3X c #B3D696",
"4X c #B2CBAD",
"5X c #E2DD9E",
"6X c #D5D9AF",
"7X c #D3E5AA",
"8X c #98D5DB",
"9X c #89E6D4",
"0X c #90E7D3",
"qX c #BAE8D6",
"wX c #AEEBD4",
"eX c #88E6EC",
"rX c #92E9EE",
"tX c #C6DDC1",
"yX c #D6F0C9",
"uX c #CBEDCB",
"iX c #EAFBDB",
/* pixels */
"                                                                ",
"                                                                ",
"                        t 7 4 e / ).|.oX:X                      ",
"                    e S S 0 6 8 0 A D U / ( F 0 r 8             ",
"                  H.U G 8 6 e 8 7 0 r t G X.G.S w *             ",
"                H._ L < @ < l H S T T T T U S w * * $           ",
"              o.^ z < : 1 h z Q 3.1.C.D.G..X' 5 E o.*           ",
"          {.o.#.Z 1 a f -.i.,.S.U.R.=XE.>X,X( ) E XX4 0         ",
"        O.&.8.$.> s B h.p.>.Q } G.R.Y.<X:XB.2X[.O.'.` }.        ",
"      y 8.1X@.+ s B k.x.9.~ K Q D.T.eX!.N.qXiXtX+XH.^.+.        ",
"    J _.`.i . : c j.c.q.~ ! t I Q.eXT.M.=XrXqXuX4X6. X( *X      ",
"0 r F ` P & @ p :.m.3X3.L e 8 ( :XG.[ U.=X>XwXqXuX`./.1.).      ",
"  4 A ^.,X%XD.] 4.q.0.^ t 8 r S G / | P.E.;X0XuXyX4X&.) T 8X    ",
"  4 E { Q.,XrXrX~.G r r e r r w q _ | A.E.-X0XqXyX6X8.W G OX    ",
"    ` T.4 0 / M.N.t 8 0 A e w 6 S / A.A.U.=X9XuXyX5X5.W J U  X  ",
"    q F.` . . 6 t Q e 5 7 w 8 w S / | A.D.-X9X4X6Xv.5.k u 5 $   ",
"      ] F.# . . = t Q J.5 w 7 j G C.Z.M.D.@X$X3Xn.b.u.x 9 4 .   ",
"      O.] H . . o 7 H K.T 4 5 T C.] } C.E.K.$Xc.s.g.;.Z k 6 o o ",
"        I G O . . * F S.U.7 e G A.C.[ M.J.U.5.i.f.d.C v : 6 O . ",
"        B.0 & . X O e <.S.| .X/ I.C.} }  .>.u.r.f.*.n 2 2 < .   ",
"          S 5 . . . = L J.E.XX:X} R.A.R K c C a.r.N 2 v > .     ",
"          O.5 O X + - E 1.K.U.rX' Y.I.} l g *.a.N d b p F       ",
"            4 $ X O y J P 2.J.:X&X] P.Y h v =.m n V p /.        ",
"            5 o % e 9 = 4 r 7.F.eX' I 8 > b 2 n e.c (.          ",
"              # O 9 % . . & u %.:X~.q # X + M r.x ].            ",
"              * # * r 8 ; . O 5 M.eXD . . Z y.k OX              ",
"                5 5 0 D j i u = 7 { w # +.0.< _.                ",
"                      _.V.E S H  .S $ * L.* #                   ",
"                            {.B.D E $ o o o                     ",
"                                  5 5 % o                       ",
"                                                                ",
"                                                                "
};
