/* XPM */
static char *result[] = {
/* columns rows colors chars-per-pixel */
"64 64 137 2 ",
"   c #3F2567",
".  c #3F2668",
"X  c #3C2B69",
"o  c #2F3F6D",
"O  c #35356B",
"+  c #38316A",
"@  c #323B6C",
"#  c #393B6F",
"$  c #441D66",
"%  c #461D68",
"&  c #412267",
"*  c #412468",
"=  c #422C6B",
"-  c #42306D",
";  c #4C3773",
":  c #423C72",
">  c #543D77",
",  c #573F79",
"<  c #1F5773",
"1  c #1D5B74",
"2  c #2C436E",
"3  c #264C6F",
"4  c #29486F",
"5  c #32426F",
"6  c #264D71",
"7  c #284A70",
"8  c #314671",
"9  c #3B4272",
"0  c #304972",
"q  c #394C76",
"w  c #225372",
"e  c #205873",
"r  c #2E5A78",
"t  c #35587A",
"y  c #1A6175",
"u  c #226378",
"i  c #2C627B",
"p  c #444576",
"a  c #404A77",
"s  c #444C79",
"d  c #4D4B7C",
"f  c #45567E",
"g  c #3F6B85",
"h  c #5F4C82",
"j  c #4B5D83",
"k  c #565281",
"l  c #5C5684",
"z  c #545C84",
"x  c #5C5D88",
"c  c #6B5C8C",
"v  c #406984",
"b  c #486B87",
"n  c #486F89",
"m  c #526086",
"M  c #59668B",
"N  c #467289",
"B  c #4D758D",
"V  c #4B7B8F",
"C  c #5A718F",
"Z  c #64618C",
"A  c #70618F",
"S  c #616E91",
"D  c #6D6C94",
"F  c #726693",
"G  c #716893",
"H  c #697496",
"J  c #657A97",
"K  c #637D98",
"L  c #747198",
"P  c #797D9E",
"I  c #7E7EA0",
"U  c #83739D",
"Y  c #897FA4",
"T  c #5E8398",
"R  c #64819A",
"E  c #6D839D",
"W  c #77819F",
"Q  c #7485A0",
"!  c #6E93A4",
"~  c #7B95A9",
"^  c #8382A4",
"/  c #8B83A7",
"(  c #8089A6",
")  c #8A89A8",
"_  c #9081A7",
"`  c #938DAD",
"'  c #819DAE",
"]  c #9090AD",
"[  c #8A9FB2",
"{  c #9493B0",
"}  c #9B93B3",
"|  c #939EB5",
" . c #9D9AB6",
".. c #9D9DB8",
"X. c #A29DB9",
"o. c #84A8B4",
"O. c #9AA0B7",
"+. c #98A2B8",
"@. c #94B3BD",
"#. c #9BB0BE",
"$. c #A4A3BC",
"%. c #ADA5BF",
"&. c #9DB4C1",
"*. c #9FBAC4",
"=. c #ACA7C0",
"-. c #A7AEC1",
";. c #AAABC1",
":. c #B1AFC5",
">. c #A2B5C3",
",. c #ABB5C6",
"<. c #B4B4C8",
"1. c #BEBBCE",
"2. c #BDC6D2",
"3. c #BBCED5",
"4. c #C3C5D4",
"5. c #C0C8D4",
"6. c #C6CFD9",
"7. c #CDCCDA",
"8. c #D2CDDC",
"9. c #C3D0D8",
"0. c #CAD1DB",
"q. c #D6D4E0",
"w. c #D6DCE3",
"e. c #DBDDE5",
"r. c #E1DFE8",
"t. c #DCE1E7",
"y. c #DBE2E8",
"u. c #E5E4EC",
"i. c #E8E5ED",
"p. c #E7EBEF",
"a. c #EBECF0",
"s. c #EFF1F4",
"d. c #F2F2F5",
"f. c #F5F6F8",
"g. c #F7F8F9",
"h. c #FFFFFF",
"j. c None",
/* pixels */
"j.j.j.j.j.j.j.j.j.j.j.j.j.j.j.j.j.j.j.j.j.j.j.j.j.j.% % $ & $ $ & & & & & & j.j.j.j.j.j.j.j.j.j.j.j.j.j.j.j.j.j.j.j.j.j.j.j.j.j.",
"j.j.j.j.j.j.j.j.j.j.j.j.j.j.j.j.j.j.j.j.j.j.% $ % % % $ $ $ & $ & & & & & & * * . . j.j.j.j.j.j.j.j.j.j.j.j.j.j.j.j.j.j.j.j.j.j.",
"j.j.j.j.j.j.j.j.j.j.j.j.j.j.j.j.j.j.j.j.% $ % $ $ $ $ & $ & & & $ & & & * & * . . . . . j.j.j.j.j.j.j.j.j.j.j.j.j.j.j.j.j.j.j.j.",
"j.j.j.j.j.j.j.j.j.j.j.j.j.j.j.j.j.% % $ % $ $ $ $ $ $ & & & & & & & & & . . . . . . . X . X X j.j.j.j.j.j.j.j.j.j.j.j.j.j.j.j.j.",
"j.j.j.j.j.j.j.j.j.j.j.j.j.j.j.j.$ $ $ $ $ $ $ $ $ & & $ & & & & & *   & d U c * . X . X X X X + j.j.j.j.j.j.j.j.j.j.j.j.j.j.j.j.",
"j.j.j.j.j.j.j.j.j.j.j.j.j.j.% $ $ $ $ $ $ $ $ $ & $ $ & & & & & & * _ u.h.h.%.. X X X X X X X X + + j.j.j.j.j.j.j.j.j.j.j.j.j.j.",
"j.j.j.j.j.j.j.j.j.j.j.j.j.$ % $ $ $ $ $ $ & $ & $ & & & & & & & d 8.h.h.h.h.%.. X X X X X + X + X + + j.j.j.j.j.j.j.j.j.j.j.j.j.",
"j.j.j.j.j.j.j.j.j.j.j.% $ $ $ $ $ $ $ $ $ $ & $ & & & & & & & > i.h.h.h.h.h.%.X X X X X X + + X + + O + + j.j.j.j.j.j.j.j.j.j.j.",
"j.j.j.j.j.j.j.j.j.j.$ $ $ $ $ $ $ $ $ $ $ & & & * & &       & 8.h.h.h.h.h.h.%.X X X + X + + + + + + + O + O j.j.j.j.j.j.j.j.j.j.",
"j.j.j.j.j.j.j.j.j.% $ $ $ $ $ $ $ & & & $ & & & & & &     . U h.h.h.h.h.h.h.%.X X + X + X + + + + O O O O O @ j.j.j.j.j.j.j.j.j.",
"j.j.j.j.j.j.j.j.% % $ $ $ $ $ $ $ $ & & & & & &   & &     . 8.h.h.h.h.h.h.h.%.X X + O X + + + O O O O O O @ @ @ j.j.j.j.j.j.j.j.",
"j.j.j.j.j.j.j.$ % % % $ $ $ $ $ & $ & & & & & &     . . . ; h.h.h.h.h.h.h.h.%.X + X + O + + O O O O O O O @ O @ @ j.j.j.j.j.j.j.",
"j.j.j.j.j.j.j.$ $ $ $ $ $ $ $ $ & & & & & &   .   . . . . c h.h.h.h.h.h.h.h.=.+ + + + + + O O O O O O @ @ @ O @ @ j.j.j.j.j.j.j.",
"j.j.j.j.j.j.% % $ $ $ & $ $ $ $ & & & &   . & . . . . . . G h.h.h.h.h.h.h.h.%.+ O + + O O O O O O @ @ O O @ @ @ @ @ j.j.j.j.j.j.",
"j.j.j.j.j.& $ $ $ $ $ $ $ $ $ & & & &   & . . . . X . X . G h.h.h.h.h.h.h.h.=.+ + O + O O O O @ @ O @ O @ @ 5 @ o @ 2 j.j.j.j.j.",
"j.j.j.j.j.$ $ $ & $ & $ & & & & & &   & . . . . . . . X . G h.h.h.h.h.h.h.h.` O O + O O O O O O O @ @ @ o @ o @ @ 2 5 j.j.j.j.j.",
"j.j.j.j.$ $ $ $ $ & $ & & & & & &     . . . . X . X X X X G h.h.h.h.h.h.h.h.k O O O O O O O O @ @ @ @ @ @ @ 2 @ 2 o 2 2 j.j.j.j.",
"j.j.j.% & % $ & $ & & & & &   * *   . . .     X X X X X X G h.h.h.h.h.h.h.1.O O O O O O O @ @ @ @ @ @ @ o @ @ 2 @ 2 o 2 5 j.j.j.",
"j.j.j.$ $ $ & & & & & & & *           . .   X X X X X X X G h.h.h.h.h.h.4.p D O O @ O @ @ @ @ @ @ @ @ 2 o o @ 2 2 2 2 2 2 j.j.j.",
"j.j.j.$ $ & $ & & & & & &           . X X X X X X X X X + : l l l l l d O  .=.O O O @ O @ @ @ @ @ 2 @ @ o o 2 2 2 2 2 2 2 j.j.j.",
"j.j.$ $ & & & & & *     * . . . .   .   - c ^ }  .X.}  . . . . . . . .$.e.h.=.O @ @ z  ...O.O.O.O.( 8 @ 2 @ 2 2 2 2 2 2 2 4 j.j.",
"j.j.& & & & & & *   *   . . . . X X A 1.f.h.h.h.h.h.h.h.h.h.h.h.h.h.h.h.h.h.-.@ @ 9 a.h.h.h.h.h.h.h.| o 2 2 2 2 2 2 7 2 7 4 j.j.",
"j.& & & & & & & * *   . . . . . d 8.h.h.h.h.h.h.h.h.h.h.h.h.h.h.h.h.h.h.h.h.=.O @ z h.h.h.h.h.h.h.h.5.2 2 2 2 2 2 7 4 4 4 7 7 j.",
"j.& & & & & & &   . . . . X . / g.h.h.h.h.h.h.h.h.h.h.h.h.h.h.h.h.h.h.h.h.h.-.@ @ z h.h.h.h.h.h.h.h.5.2 2 2 2 2 2 7 4 4 7 7 7 j.",
"j.& & & * *       . . . X = X.h.h.h.h.h.h.h.h.h.h.h.h.h.h.h.h.h.h.h.h.h.h.h.;.@ @ z h.h.h.h.h.h.h.h.5.2 2 2 2 4 7 4 7 7 7 7 6 j.",
"j.& & * * .     . .   X * ` h.h.h.h.h.h.h.h.h.h.h.h.h.h.h.h.h.h.h.h.h.h.h.h.-.@ o m h.h.h.h.h.h.h.h.5.2 7 2 4 4 4 7 7 3 7 6 6 j.",
"&   & & . . . .   X X X c g.h.h.h.h.h.h.h.h.h.h.h.h.h.h.h.h.h.h.h.h.h.h.h.h.-.@ @ z h.h.h.h.h.h.h.h.2.7 2 7 4 7 7 7 6 7 7 6 6 6 ",
"& * * * . . . . X   X - r.h.h.h.h.h.h.h.h.h.h.h.h.h.h.h.h.h.h.h.h.h.h.h.h.h.-.o 2 z h.h.h.h.h.h.h.h.2.4 2 7 7 7 7 7 7 6 6 6 6 w ",
". . . . . . . X X X . / h.h.h.h.h.h.h.h.h.h.h.h.h.h.h.h.h.h.h.h.h.h.h.h.h.h.-.o 2 m h.h.h.h.h.h.h.h.~ 2 7 7 7 7 4 6 6 6 6 6 w 6 ",
"  . . . X . . X . X X r.h.h.h.h.h.h.h.d.4.X.) P P P P P P P P P P P W I W W M 2 2 q Q Q Q Q Q Q Q C 4 7 7 4 6 3 6 6 6 6 6 w 6 w ",
". . . X X X X X X X d h.h.h.h.h.g.<.Z + O O O O O O @ O @ @ @ @ o o @ 2 o o 2 o 2 2 2 2 2 2 4 4 4 4 7 7 7 6 7 6 6 6 6 6 6 w w w ",
". . X . X . X X X + { h.h.h.h.4.d + L ;.p O O O O @ @ @ @ @ @ @ o o o o o o 2 2 2 2 2 2 2 7 2 4 7 7 4 6 7 6 6 6 6 w w 6 w 6 w w ",
"X . X X X X X X + X <.h.h.h.` O P u.h...O O O @ @ @ @ @ @ @ o @ o o o 2 o 2 2 2 2 2 2 4 4 4 4 7 7 4 6 4 6 6 6 6 6 w 6 w w 6 w w ",
". X X X X X + X X X 7.h.h.) : 1.h.h.h.x @ O @ O @ @ @ @ @ 2 @ @ o H e.a.a.a.p.a.p.0.2 4 4 7 7 7 7 6 6 6 6 6 6 w w 6 w 6 w w w w ",
"X X X X X + X + O + q.h.%.p q.h.h.h.h.p @ O @ @ @ @ @ o @ 2 @ 2 o a.h.h.h.h.h.h.h.y.2 3 7 7 7 6 6 7 6 6 6 w 6 w 6 w w w w w w e ",
"X X X X + X + X + + q.u.: 7.h.h.h.h.h.p @ @ @ @ @ @ @ @ 2 @ 2 @ 8 h.h.h.h.h.h.h.h.y.7 7 7 7 6 7 6 6 6 w 6 6 w 6 w w w w w w e e ",
"X X + X X O + O + + q.^ { h.h.h.h.h.h.p @ @ @ @ @ @ @ 2 o o 2 2 8 h.h.h.h.h.h.h.h.t.7 7 3 6 7 6 6 6 6 w 6 w w w w w w w w < e e ",
"+ X X + X O O X O + 5.d f.h.h.h.h.h.h.a @ @ @ o @ 2 @ 2 2 2 2 2 2 h.h.h.h.h.h.h.h.t.7 7 7 6 6 6 6 w 6 w 3 w w w w w w e < < < < ",
"j.X + + O X O + O O / ] h.h.h.h.h.h.h.a @ @ 2 @ o o 2 o 2 2 2 2 0 h.h.h.h.h.h.h.h.t.6 6 6 6 6 w 6 6 w w w w w w e w w e < < < j.",
"j.+ + + X O + + O O z 7.h.h.h.h.h.h.h.a 2 @ @ @ 2 @ 2 2 2 2 2 2 7 h.h.h.h.h.h.h.h.t.6 6 6 6 6 6 w w w 6 w w w w e < e e 1 < < j.",
"j.+ X O O O + O O @ @ g.h.h.h.h.h.h.h.a @ o o 2 2 o 2 2 2 2 2 2 7 s.h.h.h.h.h.h.h.y.6 6 6 6 w w 6 w w w w w w e w < e < < < 1 j.",
"j.O O + O O O O O O p h.h.h.h.h.h.h.h.z 2 5 o o 2 2 2 2 2 2 7 2 2 W p.g.g.g.g.g.g.w.6 6 w 6 6 w w w w < w w e e e < e 1 1 1 1 j.",
"j.j.O O O O O O O @ s h.h.h.h.h.h.h.h.| o 2 2 2 2 2 2 2 2 4 4 4 2 7 3 7 7 6 6 6 6 6 w 6 6 w w w w w w w < < e < < < 1 < e 1 j.j.",
"j.j.O O O O O @ O @ 9 h.h.h.h.h.h.h.h.d.f o 2 2 2 7 2 4 7 2 4 7 7 7 3 6 6 6 6 6 w w 6 w w w w w w w w e e e < e 1 < 1 1 1 1 j.j.",
"j.j.j.O O O @ @ @ @ @ p.h.h.h.h.h.h.h.h.e.j 2 2 2 2 2 2 4 2 7 7 7 6 6 6 6 6 6 w 6 w w w 6 w w w < < < w e < < 1 e 1 1 1 1 j.j.j.",
"j.j.j.O @ @ O @ @ @ @ <.h.h.h.h.h.h.h.h.h.g.,.Q J J K K K K K K K K K K K T b 6 6 r T T T T T T T N < < e e 1 < 1 1 1 e y j.j.j.",
"j.j.j.@ O @ @ @ @ @ @ H h.h.h.h.h.h.h.h.h.h.h.h.h.h.h.h.h.h.h.h.h.h.h.h.h.h.#.w w n h.h.h.h.h.h.h.h.! < 1 1 e 1 1 1 1 y y j.j.j.",
"j.j.j.j.@ @ @ @ @ @ 2 @ w.h.h.h.h.h.h.h.h.h.h.h.h.h.h.h.h.h.h.h.h.h.h.h.h.h.~ w w n h.h.h.h.h.h.h.h.3.< e 1 1 1 1 y 1 1 j.j.j.j.",
"j.j.j.j.j.@ @ o o o @ 2 S h.h.h.h.h.h.h.h.h.h.h.h.h.h.h.h.h.h.h.h.h.h.h.h.h.g w w N h.h.h.h.h.h.h.h.3.1 1 1 1 1 1 y 1 j.j.j.j.j.",
"j.j.j.j.j.@ o @ o o 2 @ 2 ..h.h.h.h.h.h.h.h.h.h.h.h.h.h.h.h.h.h.h.h.h.h.h.9.w w w N h.h.h.h.h.h.h.h.3.1 1 1 1 y y 1 y j.j.j.j.j.",
"j.j.j.j.j.j.o @ o o 2 2 2 2 ,.h.h.h.h.h.h.h.h.h.h.h.h.h.h.h.h.h.h.h.h.h.g.B w w w N h.h.h.h.h.h.h.h.3.1 1 1 1 y 1 y j.j.j.j.j.j.",
"j.j.j.j.j.j.j.2 2 o 2 2 2 2 2 [ h.h.h.h.h.h.h.h.h.h.h.h.h.h.h.h.h.h.h.h.' w < w < N h.h.h.h.h.h.h.h.3.1 1 1 y 1 y j.j.j.j.j.j.j.",
"j.j.j.j.j.j.j.2 2 2 2 2 2 2 2 7 C w.h.h.h.h.h.h.h.h.h.h.h.h.h.h.h.h.h.~ w e < w e N h.h.h.h.h.h.h.h.3.1 y y y y y j.j.j.j.j.j.j.",
"j.j.j.j.j.j.j.j.2 2 2 2 2 2 2 7 4 7 E 0.h.h.h.h.h.h.h.h.h.h.h.h.h.9.V w w e e e < i f.h.h.h.h.h.h.h.@.1 1 y y y j.j.j.j.j.j.j.j.",
"j.j.j.j.j.j.j.j.j.2 2 7 4 2 7 7 7 7 7 7 t K [ &.>.>.>.>.>.>.#.~ g w w w < e 1 < < < V &.*.*.*.*.*.o.u y y 1 y j.j.j.j.j.j.j.j.j.",
"j.j.j.j.j.j.j.j.j.j.4 2 4 7 7 7 7 7 6 6 6 6 6 6 w 6 w w w w w w e w e e < < < < 1 1 1 1 1 1 1 y 1 y 1 y y y j.j.j.j.j.j.j.j.j.j.",
"j.j.j.j.j.j.j.j.j.j.j.4 4 7 7 7 6 6 6 6 6 w 6 w 3 w w w w w w w w < e e < 1 < 1 1 1 1 1 1 1 y 1 1 y y y y j.j.j.j.j.j.j.j.j.j.j.",
"j.j.j.j.j.j.j.j.j.j.j.j.j.7 7 6 6 6 6 6 6 6 6 w w e w w w w e e e < e e < < 1 1 1 1 1 1 1 y 1 y y y y j.j.j.j.j.j.j.j.j.j.j.j.j.",
"j.j.j.j.j.j.j.j.j.j.j.j.j.j.3 6 6 6 w 6 w w 6 w w w w w e w e e < < 1 1 e 1 1 1 1 1 y 1 y 1 y 1 y y j.j.j.j.j.j.j.j.j.j.j.j.j.j.",
"j.j.j.j.j.j.j.j.j.j.j.j.j.j.j.j.6 6 6 6 w 6 w w w w w w w w e e < < < 1 1 1 1 1 y 1 1 1 y y y y j.j.j.j.j.j.j.j.j.j.j.j.j.j.j.j.",
"j.j.j.j.j.j.j.j.j.j.j.j.j.j.j.j.j.6 w w w w w w w e e w e e < e < 1 1 1 1 1 1 y 1 y 1 y 1 y y j.j.j.j.j.j.j.j.j.j.j.j.j.j.j.j.j.",
"j.j.j.j.j.j.j.j.j.j.j.j.j.j.j.j.j.j.j.j.w w w w w < < w < < 1 1 1 < 1 1 1 1 1 y 1 y y y j.j.j.j.j.j.j.j.j.j.j.j.j.j.j.j.j.j.j.j.",
"j.j.j.j.j.j.j.j.j.j.j.j.j.j.j.j.j.j.j.j.j.j.w e w < < < e < < 1 1 1 1 1 y 1 1 y y y j.j.j.j.j.j.j.j.j.j.j.j.j.j.j.j.j.j.j.j.j.j.",
"j.j.j.j.j.j.j.j.j.j.j.j.j.j.j.j.j.j.j.j.j.j.j.j.j.j.w 1 e 1 1 1 1 1 1 1 y 1 j.j.j.j.j.j.j.j.j.j.j.j.j.j.j.j.j.j.j.j.j.j.j.j.j.j."
};
