/* XPM */
static char *_9ff7ff8992c4aabd34f81e1c0734771[] = {
/* columns rows colors chars-per-pixel */
"128 128 69 1 ",
"  c #50074B",
". c #540C4F",
"X c #560F50",
"o c #571051",
"O c #5A1555",
"+ c #5C1857",
"@ c #5F1C5A",
"# c #601E5B",
"$ c #63215E",
"% c #662661",
"& c #672863",
"* c #6A2B65",
"= c #6C2F68",
"- c #6E326A",
"; c #71366D",
": c #74396F",
"> c #763C71",
", c #783F73",
"< c #7A4276",
"1 c #7D4679",
"2 c #7F497B",
"3 c #824D7E",
"4 c #834F80",
"5 c #865382",
"6 c #885785",
"7 c #8A5986",
"8 c #8D5D8A",
"9 c #91638E",
"0 c #946790",
"q c #966A93",
"w c #996E96",
"e c #9A7097",
"r c #9D749A",
"t c #A17A9E",
"y c #A47EA1",
"u c #A682A4",
"i c #A984A6",
"p c #AA87A8",
"a c #AE8BAB",
"s c #B08FAE",
"d c #B190AE",
"f c #B494B2",
"g c #B799B5",
"h c #B99BB7",
"j c #BB9EB9",
"k c #BEA2BB",
"l c #C0A6BE",
"z c #C1A8BF",
"x c #C4ABC2",
"c c #C7B0C5",
"v c #C8B1C7",
"b c #CCB6CA",
"n c #CDB8CC",
"m c #D6C4D4",
"M c #D8C7D6",
"N c #DBCCDA",
"B c #DFD1DE",
"V c #E2D6E1",
"C c #E5DAE4",
"Z c #E8DEE7",
"A c #E8DFE8",
"S c #EDE5EC",
"D c #EFE9EF",
"F c #F4EEF3",
"G c #F6F2F6",
"H c #F8F5F7",
"J c #F8F5F8",
"K c #FFFFFF",
"L c None",
/* pixels */
"LLLLLLLLLLLLLLLLLLLLLLLLLLLLLLLLLLLLLLLLLLLLLLLLLLLLLLLLLLLLLLLLLLLLLLLLLLLLLLLLLLLLLLLLLLLLLLLLLLLLLLLLLLLLLLLLLLLLLLLLLLLLLLLL",
"LLLLLLLLLLLLLLLLLLLLLLLLLLLLLLLLLLLLLLLLLLLLLLLLLLLLLLLLLLLLLLLLLLLLLLLLLLLLLLLLLLLLLLLLLLLLLLLLLLLLLLLLLLLLLLLLLLLLLLLLLLLLLLLL",
"LLLLLLLLLLLLLLLLLLLLLLLLLLLLLLLLLLLLLLLLLLLLLLLLLLLLLLLLLLLLLLLLLLLLLLLLLLLLLLLLLLLLLLLLLLLLLLLLLLLLLLLLLLLLLLLLLLLLLLLLLLLLLLLL",
"LLLLLLLLLLLLLLLLLLLLLLLLLLLLLLLLLLLLLLLLLLLLLLLLLLLLLLLLLLLLLLLLLLLLLLLLLLLLLLLLLLLLLLLLLLLLLLLLLLLLLLLLLLLLLLLLLLLLLLLLLLLLLLLL",
"LLLLLLLLLLLLLLLLLLLLLLLLLLLLLLLLLLLLLLLLLLLLLLLLLLLLLLLLLLLLLLLLLLLLLLLLLLLLLLLLLLLLLLLLLLLLLLLLLLLLLLLLLLLLLLLLLLLLLLLLLLLLLLLL",
"LLLLLLLLLLLLLLLLLLLLLLLLLLLLLLLLLLLLLLLLLLLLLLLLLLLLLLLLLLLLLLLLLLLLLLLLLLLLLLLLLLLLLLLLLLLLLLLLLLLLLLLLLLLLLLLLLLLLLLLLLLLLLLLL",
"LLLLLLLLLLLLLLLLLLLLLLLLLLLLLLLLLLLLLLLLLLLLLLLLLLLLLLLLLLLLLLLLLLLLLLLLLLLLLLLLLLLLLLLLLLLLLLLLLLLLLLLLLLLLLLLLLLLLLLLLLLLLLLLL",
"LLLLLLLLLLLLLLLLLLLLLLLLLLLLLLLLLLLLLLLLLLLLLLLLLLLLLLLLLLLLLLLLLLLLLLLLLLLLLLLLLLLLLLLLLLLLLLLLLLLLLLLLLLLLLLLLLLLLLLLLLLLLLLLL",
"LLLLLLLLLLLLLLLLLLLLLLLLLLLLLLLLLLLLLLLLLLLLLLLLLLLLLLLLLLLLLLLLLLLLLLLLLLLLLLLLLLLLLLLLLLLLLLLLLLLLLLLLLLLLLLLLLLLLLLLLLLLLLLLL",
"LLLLLLLLLLLLLLLLLLLLLLLLLLLLLLLLLLLLLLLLLLLLLLLLLLLLLLLLLLLLLLLLLLLLLLLLLLLLLLLLLLLLLLLLLLLLLLLLLLLLLLLLLLLLLLLLLLLLLLLLLLLLLLLL",
"LLLLLLLLLLLLLLLLLLLLLLLLLLLLLLLLLLLLLLLLLLLLLLLLLLLLLLLLLLLLLLLLLLLLLLLLLLLLLLLLLLLLLLLLLLLLLLLLLLLLLLLLLLLLLLLLLLLLLLLLLLLLLLLL",
"LLLLLLLLLLLLLLLLLLLLLLLLLLLLLLLLLLLLLLLLLLLLLLLLLLLLLLLLLLLLLLLLLLLLLLLLLLLLLLLLLLLLLLLLLLLLLLLLLLLLLLLLLLLLLLLLLLLLLLLLLLLLLLLL",
"LLLLLLLLLLLLLLLLLLLLLLLLLLLLLLLLLLLLLLLLLLLLLLLLLLLLLLLLLLLLLLLLLLLLLLLLLLLLLLLLLLLLLLLLLLLLLLLLLLLLLLLLLLLLLLLLLLLLLLLLLLLLLLLL",
"LLLLLLLLLLLLLLLLLLLLLLLLLLLLLLLLLLLLLLLLLLLLLLLLLLLLLLLLLLLLLLLLLLLLLLLLLLLLLLLLLLLLLLLLLLLLLLLLLLLLLLLLLLLLLLLLLLLLLLLLLLLLLLLL",
"LLLLLLLLLLLLLLLLLLLLLLLLLLLLLLLLLLLLLLLLLLLLLLLLLLLLLLLLLLLLLLLLLLLLLLLLLLLLLLLLLLLLLLLLLLLLLLLLLLLLLLLLLLLLLLLLLLLLLLLLLLLLLLLL",
"LLLLLLLLLLLLLLLLLLLLLLLLLLLLLLLLLLLLLLLLLLLLLLLLLLLLLLLLL52>>*$;-%*;;13LLLLLLLLLLLLLLLLLLLLLLLLLLLLLLLLLLLLLLLLLLLLLLLLLLLLLLLLL",
"LLLLLLLLLLLLLLLLLLLLLLLLLLLLLLLLLLLLLLLLLLLLLLLLLLLL2<&#++O+++@+@@+O+O++@&;5LLLLLLLLLLLLLLLLLLLLLLLLLLLLLLLLLLLLLLLLLLLLLLLLLLLL",
"LLLLLLLLLLLLLLLLLLLLLLLLLLLLLLLLLLLLLLLLLLLLLLLLL2*@++@@@@@@@@@#@@@@@@@@@@+O+&2LLLLLLLLLLLLLLLLLLLLLLLLLLLLLLLLLLLLLLLLLLLLLLLLL",
"LLLLLLLLLLLLLLLLLLLLLLLLLLLLLLLLLLLLLLLLLLLLLL5&+O+@@@@@@@@@@@@@@@@@@@@@@@@@@@OO%2LLLLLLLLLLLLLLLLLLLLLLLLLLLLLLLLLLLLLLLLLLLLLL",
"LLLLLLLLLLLLLLLLLLLLLLLLLLLLLLLLLLLLLLLLLLLL<@O@@@@@@@@@@@@@@@@@@@@@@@@@@@@@@@@@@O@;LLLLLLLLLLLLLLLLLLLLLLLLLLLLLLLLLLLLLLLLLLLL",
"LLLLLLLLLLLLLLLLLLLLLLLLLLLLLLLLLLLLLLLLLL;OO@@@@@@@@@@@@@@@@@@@@@@@@@@@@@@@@@@@@@@OO>LLLLLLLLLLLLLLLLLLLLLLLLLLLLLLLLLLLLLLLLLL",
"LLLLLLLLLLLLLLLLLLLLLLLLLLLLLLLLLLLLLLLL<+O@@@#@@@@@@@@@@@@@@@@@@@@@@@@@@@@@@@@@@@@@#OO>LLLLLLLLLLLLLLLLLLLLLLLLLLLLLLLLLLLLLLLL",
"LLLLLLLLLLLLLLLLLLLLLLLLLLLLLLLLLLLLLL9@O@@@@@@@@@@@@@@@@@@@@@@@@@@@#@@@@@@#@@@@@@@@@@#O+5LLLLLLLLLLLLLLLLLLLLLLLLLLLLLLLLLLLLLL",
"LLLLLLLLLLLLLLLLLLLLLLLLLLLLLLLLLLLLL;o@@@@@@@@@@@@@@@@@@@@@@@@@@@@@@@@@@@@@@@@@@@@#@@@@@O*LLLLLLLLLLLLLLLLLLLLLLLLLLLLLLLLLLLLL",
"LLLLLLLLLLLLLLLLLLLLLLLLLLLLLLLLLLLw@O@@@@@@@@@@@@@@@@@@@@@@@@@@@@@@@@@@#@@@@@@@@@@@@@@@@@++8LLLLLLLLLLLLLLLLLLLLLLLLLLLLLLLLLLL",
"LLLLLLLLLLLLLLLLLLLLLLLLLLLLLLLLLL1O+@@@@@@@#@@@@@@@@@@@@@@@@@@@@@@@@@@@@@@@@@@@@@@@@@@@#@@@O>LLLLLLLLLLLLLLLLLLLLLLLLLLLLLLLLLL",
"LLLLLLLLLLLLLLLLLLLLLLLLLLLLLLLLL;O@@@@@@@@@@@@@@@@@@@@@@@@@@@@#@@@@@@@@@@@@#@@@@@@@@@@@@@@@@O*LLLLLLLLLLLLLLLLLLLLLLLLLLLLLLLLL",
"LLLLLLLLLLLLLLLLLLLLLLLLLLLLLLLL$O@@@@@@@@@@@@@@@@@#@@@@@@@@@@@@@@@#@@@@@@@@@@@@@@#@@@@@@@@@@#O@LLLLLLLLLLLLLLLLLLLLLLLLLLLLLLLL",
"LLLLLLLLLLLLLLLLLLLLLLLLLLLLLLL%+@@@@@@@@@@@@@@@@@@@@@@#@@@@@@@@@@@@@@@@@@@@@@@@@@@@@@@@@@@@@@@+$LLLLLLLLLLLLLLLLLLLLLLLLLLLLLLL",
"LLLLLLLLLLLLLLLLLLLLLLLLLLLLLL++@@@@@@@@@@@#@@@@@@@@@@@@@@@@@@@@@@@@@@@@@@@@@@@@@@@@@@@@@@@@#@@@+OLLLLLLLLLLLLLLLLLLLLLLLLLLLLLL",
"LLLLLLLLLLLLLLLLLLLLLLLLLLLLL$+@@@#@@@@@@@@@@@@@@@@@@@@@@@@@@@@@@@@@@@@@@@@#@@@@@@@@@@@@@@@@@@@@@+@LLLLLLLLLLLLLLLLLLLLLLLLLLLLL",
"LLLLLLLLLLLLLLLLLLLLLLLLLLLL$O@@@@@@@@@@@@@@@@@#@@@@@@@@@@@@@@@@@@@@#@@@@@@@@@@@@@@@@#@@@@@@@@@@@@+@LLLLLLLLLLLLLLLLLLLLLLLLLLLL",
"LLLLLLLLLLLLLLLLLLLLLLLLLLL;O@@@@@@@@@@@@@@#@@@@@@@@@#@@@@@@@@@@@@@@@@@@@@@@@@@@@@@@@@@@@@@@@@@@@@@O&LLLLLLLLLLLLLLLLLLLLLLLLLLL",
"LLLLLLLLLLLLLLLLLLLLLLLLLL5o@@@@@@@@@@@@@@@@@@@@@@@@@@@@@@@@@@@@++O+++O+@@#@@@@@@@@@@#@@@@@@@@@@@@@@O<LLLLLLLLLLLLLLLLLLLLLLLLLL",
"LLLLLLLLLLLLLLLLLLLLLLLLLyX@@@@@@@@@@@@@@@@@@@@@@@@@@@@@@@@@@@@@=-------#@@@@@@@@@@@@@@@@@@@@@@@@@@@@X0LLLLLLLLLLLLLLLLLLLLLLLLL",
"LLLLLLLLLLLLLLLLLLLLLLLLLO@@@@@@@@@@@#@@@@@@@@@@@@@@@@@@@@@#@@+-SGGGGGGS-O@@@@@@@@@@@@@@@@#@@@@@@@@@@@OLLLLLLLLLLLLLLLLLLLLLLLLL",
"LLLLLLLLLLLLLLLLLLLLLLLL;O@@@@@@@@@@@@@@@@@@@@@@@@@@@@@@@@@@@@+-JKKKKKKJ-O#@@@@#@$@@@@@@@@@@@@@@@@@@@@O&LLLLLLLLLLLLLLLLLLLLLLLL",
"LLLLLLLLLLLLLLLLLLLLLLLeX@@@@@@@@@@@@@@@@@@@@@@@#@@@@@@@@@@@#@+-JKKKKKKG-+@@@@@@@@@@@@@@@@@@@@@@@@@@@@@O8LLLLLLLLLLLLLLLLLLLLLLL",
"LLLLLLLLLLLLLLLLLLLLLLL@@@@@@@@@@@@@@@@@@@@@@@@@@@@@@@@@@@@@@@+-GKKKKKKG-+@@@@@@@@@@@@@@@@@@#@@@@@@@@@@+OLLLLLLLLLLLLLLLLLLLLLLL",
"LLLLLLLLLLLLLLLLLLLLLL3o@@@@@@@@@@#@@@@@@@@@@@#@@@@@@@@#@@@@@@+-GKKKKKKG-O@@@@@@@@@@@@@@@#@@@@@@@@@@@@@#O>LLLLLLLLLLLLLLLLLLLLLL",
"LLLLLLLLLLLLLLLLLLLLLLO@@@@@@@@@@@@@@@@@@@@@@@@@@@@@@@@@@@@@@@+-GKKKKKKG-+@@@@@@@@@@@@@@@#@@@@@@@@@@+##@@oLLLLLLLLLLLLLLLLLLLLLL",
"LLLLLLLLLLLLLLLLLLLLL1O@@@@@@@@@@@@@@@#@@@@@@@@@@@@@@@@@@@@@@@O-GKKKKKKG-+@@@@@@@@@@@@@@@@@@@@@@@#@@#@@@@O-LLLLLLLLLLLLLLLLLLLLL",
"LLLLLLLLLLLLLLLLLLLLLO@@@@@#@@@@@@@@@@@@@@@@@@@@@#@@@@@@@@@@@@+-GKKKKKKG-O@@@@@@@@@@@@@@@@@@@@@@@@@@@@@@@@OpLLLLLLLLLLLLLLLLLLLL",
"LLLLLLLLLLLLLLLLLLLL<O@@@@@@@@@@@@@@@@@@@#@@@@@@@@@@@@@@@@@@@@+-GKKKKKKG-+@@@@@@@@@@@@@@@@@@@@@@@@@@@@@@@@+:LLLLLLLLLLLLLLLLLLLL",
"LLLLLLLLLLLLLLLLLLLL+@@@@@@@@@@@@@@@@@@@@@@@@@@@@@@@@@@@@@@@@@+-GKKKKKKG-+@@@@@@@@@@@@@@@@@@@@@@@@@@@@@@@@@OLLLLLLLLLLLLLLLLLLLL",
"LLLLLLLLLLLLLLLLLLL8O@@@@@@@@#@@@#@@@@@@@@@@#@@@@@@@@@@@@@@@@@O-GKKKKKKG-+@@@@@@@@@@@@@@@@@@@@@@@@#@@@@@@@@O5LLLLLLLLLLLLLLLLLLL",
"LLLLLLLLLLLLLLLLLLL%+@@@#@@@@@@@@@@@@@@@#@@@@@@@@@@@@@@@@@@@@@+-GKKKKKKG-+@@@@@@@@@@@@@@@@@@@@@@@@@@@@@@@@@@#LLLLLLLLLLLLLLLLLLL",
"LLLLLLLLLLLLLLLLLLLO@@@@@@@@@@@@@@@@@@@@@@@@@@@@@@@@@#@@@@@@@@+-GKKKKKKG-+@@@@@@@#@@@@@@@@@#@@@@@@@@@@@@@@@@OwLLLLLLLLLLLLLLLLLL",
"LLLLLLLLLLLLLLLLLL3O@@@@@@@@@@@@@@#@@@@@@@@@@@@@@@@@@@@@@@@@@@O-GKKKKKKG-O@@@@@@@@@@@@#@@@@@@@@@@@@@@@@@@@@@O<LLLLLLLLLLLLLLLLLL",
"LLLLLLLLLLLLLLLLLL&@@@@@@@#@@@@@@@@@@@@@#@@@@@@#@@@@@#@@@@@@@@+-GKKKKKKG-+@@@@@@@@@@@@@@@@@@@@@@@@@@@@@@@@@@@$LLLLLLLLLLLLLLLLLL",
"LLLLLLLLLLLLLLLLLLO@@@@#@@@@@@@@@@@@@@@@@@@@+++OO+++++OO+++OOOO*GKKKKKKG*oOOOO@@@@@@@@@@@@@@@@@@#@@@@@@@@@@@@OLLLLLLLLLLLLLLLLLL",
"LLLLLLLLLLLLLLLLLwO@@@@@@@@@@@@@@@@@@@@@OXX@%-;;;;;;;;;;;;;;;:-2GKKKKKKJ5><<<<#@@@@@@@@@@@@@#@@@@@@@@@@@@@@@@O8LLLLLLLLLLLLLLLLL",
"LLLLLLLLLLLLLLLLL,O@@@@@@@@@@@@@@@@@@+o+<ycBSGHJJJJJHHHHJJJJHJJJKKKKKKKKJKJKJD=+@@@@@@@@@@@@@@@@@@@@@@@@@@@@@+;LLLLLLLLLLLLLLLLL",
"LLLLLLLLLLLLLLLLL&@@@@@@@@@@@@@@@@@@O+qMKKKKKKKKKKKKKKKKKKKKKKKKKKKKKKKKKKKKKG*+@@@@@@@@@@@@@@@@@@@@@@@@@@@@@@#LLLLLLLLLLLLLLLLL",
"LLLLLLLLLLLLLLLLL#@@@@@@@@@@@@@@@@+X2MKKKKKKKKKKKKKKKKKKKKKKKKKKKKKKKKKKKKKKKD*@@@@@@@@@@@@@@@@@@@@@@@@@@@@@@@+LLLLLLLLLLLLLLLLL",
"LLLLLLLLLLLLLLLLLO@@@@@@@@@@@@@@@@OtJKKKKKKKKKKKKKKKKKKKKKKKKKKKKKKKKKKKKKKKKG*O@@@@@@@@@@#@@@@@@@@@@@@@@@@@@@OwLLLLLLLLLLLLLLLL",
"LLLLLLLLLLLLLLLL6O@@@@@@@@@@@@@@@XpKKKKKKKKKKKKKKKKKKKKKKKKKKKKKKKKKKKKKKKKKKF*@@@@@@@@@@@#@@@@@@@@@@@@@@@@@@@O3LLLLLLLLLLLLLLLL",
"LLLLLLLLLLLLLLLL1O@@@@@@@@@@@@@@XrKKKKKKKKKKKKKKKKKKKKKKKKKKKKKKKKKKKKKKKKKKKF&.ooooX@@@@@@@@@@@@@@@@@@@@@@@@@+>LLLLLLLLLLLLLLLL",
"LLLLLLLLLLLLLLLL<O@@@@@@@@@@@@@O<JKKKKKKKKKKKKKKKKKKKKKKKKKKKKKKKKKKKKKKKKKKKF1jkkkkk;O@@@@@@@@@@@#@@@@@@#@@@@+;LLLLLLLLLLLLLLLL",
"LLLLLLLLLLLLLLLL-+@@@@@@@@@@@@@OmKKKKKKKKKKKSMvccccccccccccccccbKKKKKKKKSSSSSN6KKKKKK2O@@@@@@@@@@@@@@@@@@@@@@@+-LLLLLLLLLLLLLLLL",
"LLLLLLLLLLLLLLLL*@@@@@@@@@@@@@O6KKKKKKKKKJj3%OOXOXOXoOooOXOXoOX%FKKKKKKG>$%%%@2KKKKKK1O@@OOOOOO+@@@@@#@@@@@@@@@$LLLLLLLLLLLLLLLL",
"LLLLLLLLLLLLLLLL*+@@@@@@@@@@@@OnKKKKKKKKZ3.OO@@@@@@@#+##@@@@#+O-GKKKKKKG=o@+@o1KKKKKK1o#OgmmmmmtO@@@@@@@@@@@@@@*LLLLLLLLLLLLLLLL",
"LLLLLLLLLLLLLLLL%@@@@@@@@@@@@O;JKKKKKKKD;X@@@@@@@@#@##++@@#@+++=GKKKKKKG-+@@@O1KKKKKK1O+ONKKKKKjX@@@@@@@@@@@@@@%LLLLLLLLLLLLLLLL",
"LLLLLLLLLLLLLLLL$@@@@@@@#@@@@oeKKKKKKKKwX@@@@@@@@@@@+###@@@@##+;GKKKKKKG-+@@@o2KKKKKK1O@OmKKKKKhX@@@@@@@@@@@@@@%LLLLLLLLLLLLLLLL",
"LLLLLLLLLLLLLLLL*+@@@@@#@@@@@XzKKKKKKKC@+@@@@@@@@@@@@@@@@@@@@@+-GKKKKKKF%.XXo.:mmmmmm:O@OmKKKKKhX#@@@@@@@@@@@@@&LLLLLLLLLLLLLLLL",
"LLLLLLLLLLLLLLLL*@@@@@@@@@@@@@BKKKKKKKsX#@@@@@@@@@@@@@@@@@@@@@O-GKKKKKKKcxxxxk=oOOOOOO+@XmKKKKKhX@@@@@@@@@@@@@@$LLLLLLLLLLLLLLLL",
"LLLLLLLLLLLLLLLL-+@@@@@@@@@@O*DKKKKKKK5o@@@@@@@@@@@#@@@@@@@@@@+-GKKKKKKKKKKKKK,o@@@@$%%%$MKKKKKkX@@@@@@@#@@@@@@*LLLLLLLLLLLLLLLL",
"LLLLLLLLLLLLLLLL:O@@@@@@@@@@O<KKKKKKKG-+@@@@@@@@@@@@@@@@@@@@@@+-GKKKKKKKKKKKKJ,O@@@odSSSSJSjkkk0O@@@@@@@@@@@@@+;LLLLLLLLLLLLLLLL",
"LLLLLLLLLLLLLLLL2+@@@@@@@@@@O4KKKKKKKZ$+@@@@@#@@@@@@#@@@@@@@@@+-GKKKKKKKKKKKKJ,O@@@XlKKKKKm XXXO@@@@#@@@@@@@@@O>LLLLLLLLLLLLLLLL",
"LLLLLLLLLLLLLLLL5O@@@@@@@@@@o8KKKKKKKN+@@@@@@@@@@@@@@@@@@@@@@@O-GKKKKKKKKKKKKJ>O@@#XkKKKKKmO@@@@#@@@@@@@@@@@#@O3LLLLLLLLLLLLLLLL",
"LLLLLLLLLLLLLLLLLO@@@@@@@@@@o9KKKKKKKmO@@@@@@@@@@@@@@@@@@@@@@@+-GKKKKKKKKKKKKK>O@@@okKKKKKmO@@@@@@@@@@@@@@@@@@O8LLLLLLLLLLLLLLLL",
"LLLLLLLLLLLLLLLLL@@@@@@@@@@#XqKKKKKKKMo@@@@#@@@@@@#@@@@@@@@@@@+-GKKKKKKKKKKKKJ>O@@@XkKKKKKmO@@@@@@@@@@@@@@@@@@+LLLLLLLLLLLLLLLLL",
"LLLLLLLLLLLLLLLLL%@@@@@@@@@@o0KKKKKKKmO@#@@@@@@@@@@@@@#@@@@@@@+-GKKKKKKKKKKKKJ>O@@@XxKKKKKNO@@@@@@@@@@@@@@@@@@#LLLLLLLLLLLLLLLLL",
"LLLLLLLLLLLLLLLLL>O@@@@@@@@@O8KKKKKKKNO@@@@@@@@@@@@@@@@@@@@@@@O-GKKKKKKKKKKKKK>O@@@O5tttrt9+@+XXXXO@@@@@@@@@@O-LLLLLLLLLLLLLLLLL",
"LLLLLLLLLLLLLLLLL5O@@@@@@@@@o5KKKKKKKC$@@@@@@@@@@@@@@@@@@@@@@@O;JKKKKKKKJJKJJG>O@@@#OXXXXXO@O<ffffwO@@@@@@@@@O2LLLLLLLLLLLLLLLLL",
"LLLLLLLLLLLLLLLLLLO@@@@@@@@@O1KKKKKKKG*O@@@@@@@@@@@@@@@@@@@@@@+>JKKKKKKG3;>>>:$@@@@@#@#@##@#XqKKKKmo@@@@@@@@@OrLLLLLLLLLLLLLLLLL",
"LLLLLLLLLLLLLLLLLL$+@@@@@@@@O-GKKKKKKK3O@@@@@@#@@@@@@@@@@@@@@@O3KKKKKKKD$oOOOO@@@@@@@@#@@@@@o9KKKKbO@@@@@@@@@@LLLLLLLLLLLLLLLLLL",
"LLLLLLLLLLLLLLLLLL3O@@@@@@@@@#VKKKKKKKyX@@@@@@@@@@@@@@@@@@@@@@XqKKKKKKKZ$@@@@@@@@@+O+++@@@@@o9KKKKbo@@@@@@@@O>LLLLLLLLLLLLLLLLLL",
"LLLLLLLLLLLLLLLLLLao@@@@@@@@@ovKKKKKKKNO+#@@@@@@@@@@@#@@@@@@@@XkKKKKKKKM+#@@@@@@@@*****#@@@@oqKKKKmO@@@@@@@@orLLLLLLLLLLLLLLLLLL",
"LLLLLLLLLLLLLLLLLLL$@@@@@@@@@XyKKKKKKKK6X#@@@@@@@@@@@@@@@@@@@+%SKKKKKKKxX@@@@@@@@@mFFFF3O@@@O>pppp9O@@@@@@@@@LLLLLLLLLLLLLLLLLLL",
"LLLLLLLLLLLLLLLLLLL5O@@@@@@@@O,JKKKKKKKC%O@@@@@@@@@@@@@@@@@@@ pKKKKKKKKiO#@@@@@@@@BKKKK5o@@@@+.XXXO@@@@@@@@O<LLLLLLLLLLLLLLLLLLL",
"LLLLLLLLLLLLLLLLLLLLO@@@@@@@@@ONKKKKKKKKm=.O@@@@@@@@@@@@@@+OX9JKKKKKKKKSVto@@@@@@+NKKKK5O@@@@@@@@@@@@@@@@@@OLLLLLLLLLLLLLLLLLLLL",
"LLLLLLLLLLLLLLLLLLLL;O@@@@@@@@XwKKKKKKKKKDi;OXXXX.XX..XXXO@<kKKKKKKKKKKKKd.@@@@@@@BKKKK5o@@@@o.O@@@@@@@@@@@*LLLLLLLLLLLLLLLLLLLL",
"LLLLLLLLLLLLLLLLLLLLiO@@@@@@@@@#VKKKKKKKKKKGNxfsasssssasgvBKKKKKKKKKKKKKKsX@@@@@+@mGGGG3o@@@$ei5O@@@@@@@@@orLLLLLLLLLLLLLLLLLLLL",
"LLLLLLLLLLLLLLLLLLLLL*+@@@@@@@@X7KKKKKKKKKKKKKKKKKKKKKKKKKKKKKKKKKKKKKJJJsX@@@@@#@*----$@@@@$DKlX@@@@@@@@O%LLLLLLLLLLLLLLLLLLLLL",
"LLLLLLLLLLLLLLLLLLLLLiO@@@@@@@@@ofKKKKKKKKKKKKKKKKKKKKKKKKKKKKKKKKKKKh;,>*@@@@@@@@++O+O@#@@+$NFdX@@@@@@@@XtLLLLLLLLLLLLLLLLLLLLL",
"LLLLLLLLLLLLLLLLLLLLLL:O@@@@@@@#@+xKKKKKKKKKKKKKKKKKKKKKKKKKKKKKKKKKB@OOO@@@@#@@@@@@@@#@@@@@@**%@@@@@@@@O=LLLLLLLLLLLLLLLLLLLLLL",
"LLLLLLLLLLLLLLLLLLLLLLLO@@@@@@@@@+@jKKKKKKKKKKKKKKKKKKKKKKKKKKKKKKKC-O@@@@@@@@@@@@@@@@@@@@@@@O+@@@@@@@@@OLLLLLLLLLLLLLLLLLLLLLLL",
"LLLLLLLLLLLLLLLLLLLLLLL6X@@@@@@@@@OOeDKKKKKKKKKKKKKKKKKKKKKKKKKKKKm=O@@@@@@@@@@@@@@@@@@@@@@@@@@@@@@@@@@O1LLLLLLLLLLLLLLLLLLLLLLL",
"LLLLLLLLLLLLLLLLLLLLLLLL%+@@@@@@@@@@X-fDKKKKKKKKKKKKKKKKKKKKKKKKAt@O@@@@@@@@@@@@@@@@@@@@@@@@@@@@@@@@@@@@LLLLLLLLLLLLLLLLLLLLLLLL",
"LLLLLLLLLLLLLLLLLLLLLLLLLO@@@@@@@@@@@OX*qxVGKKKKKKKKKKKKKKKKHCc9%X+@@@@@@@@@@@#@@@@@@@@#@@@@@@@@@@@@@@XiLLLLLLLLLLLLLLLLLLLLLLLL",
"LLLLLLLLLLLLLLLLLLLLLLLLL8o@@@@@@@@@@#@+oo#-1566666666666652;$oo+@@@@@@@@@@@@@@@@@@@@@@@@#@@@@@@@@@@@o3LLLLLLLLLLLLLLLLLLLLLLLLL",
"LLLLLLLLLLLLLLLLLLLLLLLLLL>O@@@@@@@@@@@@@@@OOoOXoooooXOXOXOOO@@@@@@@@@@@@@@@@@@@@@@@@@@@@@@@@@@@@@@@O*LLLLLLLLLLLLLLLLLLLLLLLLLL",
"LLLLLLLLLLLLLLLLLLLLLLLLLLL#O@@@@@@@@@@@@@@@@@@@@@###@@@@@@@@@@@@@@@@@@@@@@@@@@@@@@@@@@@@@@@@@@@@@@+@LLLLLLLLLLLLLLLLLLLLLLLLLLL",
"LLLLLLLLLLLLLLLLLLLLLLLLLLLLO@@@@@@@@@@@@@@@#@@@@@@@#@@@@@@@@@@@@@@@@@@@@@@@@@@@@@@@@@@@@@@@@#@@@@@OLLLLLLLLLLLLLLLLLLLLLLLLLLLL",
"LLLLLLLLLLLLLLLLLLLLLLLLLLLLLO@@@@@@@@@@@@@@@@@@@@@@@@@@@@@@@@@@@@@@@@@@@@@@@@@@@#@@@@@@@@@@@@@@@@XrLLLLLLLLLLLLLLLLLLLLLLLLLLLL",
"LLLLLLLLLLLLLLLLLLLLLLLLLLLLLaO+@@@@@@@@@@@@@@#@@@@@@@@@@@@@@@@@@@@@@@@@@@@@@@@@@@@@@@@@@@@@@@@@@XyLLLLLLLLLLLLLLLLLLLLLLLLLLLLL",
"LLLLLLLLLLLLLLLLLLLLLLLLLLLLLLuO@@@@@@@@@@@@@@@@@@@@@@#@@@@@@@@@@#@@@@@@@@@@@@@@@@@@@@@@@@@@@@@@OyLLLLLLLLLLLLLLLLLLLLLLLLLLLLLL",
"LLLLLLLLLLLLLLLLLLLLLLLLLLLLLLLiO+@@@@@@@@@@@@@@@@@@@@@@@@@@@@#@@@@@@@@@@@@@@@@@@@@@@@@@@@@@@@+@6LLLLLLLLLLLLLLLLLLLLLLLLLLLLLLL",
"LLLLLLLLLLLLLLLLLLLLLLLLLLLLLLLLL$O@@@@@@@@@@@@@@@@@@@@@@@@@@@@@@@@@@@@@@@@@@@@@@@@#@@@@@@@@@O@LLLLLLLLLLLLLLLLLLLLLLLLLLLLLLLLL",
"LLLLLLLLLLLLLLLLLLLLLLLLLLLLLLLLLL-o@#@@@@@@@@@@@@@@@@@@@@@@@@@@@@@@@@@@@@@@@@@@@@@@@@@@@@@@O*LLLLLLLLLLLLLLLLLLLLLLLLLLLLLLLLLL",
"LLLLLLLLLLLLLLLLLLLLLLLLLLLLLLLLLLL3O+@@@@@@@@@@@@@@@@@@@@#@@@@@@@@@@@#@#@@@@@@@@@@@@@@@@@+O1LLLLLLLLLLLLLLLLLLLLLLLLLLLLLLLLLLL",
"LLLLLLLLLLLLLLLLLLLLLLLLLLLLLLLLLLLLq$O#@@@@@@@@@@#@@@@@@@@@@@@@@@@@@@@@@@@@@@@@@@@@@@@@@O#9LLLLLLLLLLLLLLLLLLLLLLLLLLLLLLLLLLLL",
"LLLLLLLLLLLLLLLLLLLLLLLLLLLLLLLLLLLLLL<O+@@@@@@@@@@@@@@@@@@@@@@@@@@@@@@@@@@@@@@@@@#@@@@+O,LLLLLLLLLLLLLLLLLLLLLLLLLLLLLLLLLLLLLL",
"LLLLLLLLLLLLLLLLLLLLLLLLLLLLLLLLLLLLLLLL*O+@@@@@@@@@@@@@@@@@@@@@@@@@@@@@@@@@@@@@@@@@@@O%eLLLLLLLLLLLLLLLLLLLLLLLLLLLLLLLLLLLLLLL",
"LLLLLLLLLLLLLLLLLLLLLLLLLLLLLLLLLLLLLLLLL8%O+@@@@@@@@@@@@#@@@@@@#@@@@@@@@@@@@@@@@@@@O#8LLLLLLLLLLLLLLLLLLLLLLLLLLLLLLLLLLLLLLLLL",
"LLLLLLLLLLLLLLLLLLLLLLLLLLLLLLLLLLLLLLLLLLL6*O+@@@@@@@@@@@@@@@@@@@@@#@@@@@@@@@@@@OO&5LLLLLLLLLLLLLLLLLLLLLLLLLLLLLLLLLLLLLLLLLLL",
"LLLLLLLLLLLLLLLLLLLLLLLLLLLLLLLLLLLLLLLLLLLLLL;@O+@@@@@@@@@@@@@@@@@@@@@@@@@@@@+O+:9LLLLLLLLLLLLLLLLLLLLLLLLLLLLLLLLLLLLLLLLLLLLL",
"LLLLLLLLLLLLLLLLLLLLLLLLLLLLLLLLLLLLLLLLLLLLLLLL5-#O++@#@@@@@@@@@@@@@@@@#@++O#-7LLLLLLLLLLLLLLLLLLLLLLLLLLLLLLLLLLLLLLLLLLLLLLLL",
"LLLLLLLLLLLLLLLLLLLLLLLLLLLLLLLLLLLLLLLLLLLLLLLLLLL7<&#+O+O@@@@@@@@@++++O#%<8LLLLLLLLLLLLLLLLLLLLLLLLLLLLLLLLLLLLLLLLLLLLLLLLLLL",
"LLLLLLLLLLLLLLLLLLLLLLLLLLLLLLLLLLLLLLLLLLLLLLLLLLLLLLLL3<;*%%$#@$&%*->5LLLLLLLLLLLLLLLLLLLLLLLLLLLLLLLLLLLLLLLLLLLLLLLLLLLLLLLL",
"LLLLLLLLLLLLLLLLLLLLLLLLLLLLLLLLLLLLLLLLLLLLLLLLLLLLLLLLLLLLLLLLLLLLLLLLLLLLLLLLLLLLLLLLLLLLLLLLLLLLLLLLLLLLLLLLLLLLLLLLLLLLLLLL",
"LLLLLLLLLLLLLLLLLLLLLLLLLLLLLLLLLLLLLLLLLLLLLLLLLLLLLLLLLLLLLLLLLLLLLLLLLLLLLLLLLLLLLLLLLLLLLLLLLLLLLLLLLLLLLLLLLLLLLLLLLLLLLLLL",
"LLLLLLLLLLLLLLLLLLLLLLLLLLLLLLLLLLLLLLLLLLLLLLLLLLLLLLLLLLLLLLLLLLLLLLLLLLLLLLLLLLLLLLLLLLLLLLLLLLLLLLLLLLLLLLLLLLLLLLLLLLLLLLLL",
"LLLLLLLLLLLLLLLLLLLLLLLLLLLLLLLLLLLLLLLLLLLLLLLLLLLLLLLLLLLLLLLLLLLLLLLLLLLLLLLLLLLLLLLLLLLLLLLLLLLLLLLLLLLLLLLLLLLLLLLLLLLLLLLL",
"LLLLLLLLLLLLLLLLLLLLLLLLLLLLLLLLLLLLLLLLLLLLLLLLLLLLLLLLLLLLLLLLLLLLLLLLLLLLLLLLLLLLLLLLLLLLLLLLLLLLLLLLLLLLLLLLLLLLLLLLLLLLLLLL",
"LLLLLLLLLLLLLLLLLLLLLLLLLLLLLLLLLLLLLLLLLLLLLLLLLLLLLLLLLLLLLLLLLLLLLLLLLLLLLLLLLLLLLLLLLLLLLLLLLLLLLLLLLLLLLLLLLLLLLLLLLLLLLLLL",
"LLLLLLLLLLLLLLLLLLLLLLLLLLLLLLLLLLLLLLLLLLLLLLLLLLLLLLLLLLLLLLLLLLLLLLLLLLLLLLLLLLLLLLLLLLLLLLLLLLLLLLLLLLLLLLLLLLLLLLLLLLLLLLLL",
"LLLLLLLLLLLLLLLLLLLLLLLLLLLLLLLLLLLLLLLLLLLLLLLLLLLLLLLLLLLLLLLLLLLLLLLLLLLLLLLLLLLLLLLLLLLLLLLLLLLLLLLLLLLLLLLLLLLLLLLLLLLLLLLL",
"LLLLLLLLLLLLLLLLLLLLLLLLLLLLLLLLLLLLLLLLLLLLLLLLLLLLLLLLLLLLLLLLLLLLLLLLLLLLLLLLLLLLLLLLLLLLLLLLLLLLLLLLLLLLLLLLLLLLLLLLLLLLLLLL",
"LLLLLLLLLLLLLLLLLLLLLLLLLLLLLLLLLLLLLLLLLLLLLLLLLLLLLLLLLLLLLLLLLLLLLLLLLLLLLLLLLLLLLLLLLLLLLLLLLLLLLLLLLLLLLLLLLLLLLLLLLLLLLLLL",
"LLLLLLLLLLLLLLLLLLLLLLLLLLLLLLLLLLLLLLLLLLLLLLLLLLLLLLLLLLLLLLLLLLLLLLLLLLLLLLLLLLLLLLLLLLLLLLLLLLLLLLLLLLLLLLLLLLLLLLLLLLLLLLLL",
"LLLLLLLLLLLLLLLLLLLLLLLLLLLLLLLLLLLLLLLLLLLLLLLLLLLLLLLLLLLLLLLLLLLLLLLLLLLLLLLLLLLLLLLLLLLLLLLLLLLLLLLLLLLLLLLLLLLLLLLLLLLLLLLL",
"LLLLLLLLLLLLLLLLLLLLLLLLLLLLLLLLLLLLLLLLLLLLLLLLLLLLLLLLLLLLLLLLLLLLLLLLLLLLLLLLLLLLLLLLLLLLLLLLLLLLLLLLLLLLLLLLLLLLLLLLLLLLLLLL",
"LLLLLLLLLLLLLLLLLLLLLLLLLLLLLLLLLLLLLLLLLLLLLLLLLLLLLLLLLLLLLLLLLLLLLLLLLLLLLLLLLLLLLLLLLLLLLLLLLLLLLLLLLLLLLLLLLLLLLLLLLLLLLLLL",
"LLLLLLLLLLLLLLLLLLLLLLLLLLLLLLLLLLLLLLLLLLLLLLLLLLLLLLLLLLLLLLLLLLLLLLLLLLLLLLLLLLLLLLLLLLLLLLLLLLLLLLLLLLLLLLLLLLLLLLLLLLLLLLLL",
"LLLLLLLLLLLLLLLLLLLLLLLLLLLLLLLLLLLLLLLLLLLLLLLLLLLLLLLLLLLLLLLLLLLLLLLLLLLLLLLLLLLLLLLLLLLLLLLLLLLLLLLLLLLLLLLLLLLLLLLLLLLLLLLL",
"LLLLLLLLLLLLLLLLLLLLLLLLLLLLLLLLLLLLLLLLLLLLLLLLLLLLLLLLLLLLLLLLLLLLLLLLLLLLLLLLLLLLLLLLLLLLLLLLLLLLLLLLLLLLLLLLLLLLLLLLLLLLLLLL"
};
