/* XPM */
static char *c107a6a6980e43b1ddcfb463cd314ac5x1abkd2Y7WMmlE2o[] = {
/* columns rows colors chars-per-pixel */
"64 64 256 2 ",
"   c None",
".  c #010102",
"X  c #00030B",
"o  c #020A0D",
"O  c #080B04",
"+  c #011302",
"@  c #021B02",
"#  c #07160B",
"$  c #010C13",
"%  c #000914",
"&  c #00131C",
"*  c #011B1D",
"=  c #041515",
"-  c #121905",
";  c #022603",
":  c #093504",
">  c #163B06",
",  c #06241A",
"<  c #133113",
"1  c #283A03",
"2  c #2F380A",
"3  c #001522",
"4  c #001B24",
"5  c #011D29",
"6  c #091F2A",
"7  c #012224",
"8  c #01242C",
"9  c #022B2C",
"0  c #092D29",
"q  c #043429",
"w  c #012C34",
"e  c #012E39",
"r  c #012732",
"t  c #013234",
"y  c #01343B",
"u  c #013B3D",
"i  c #093936",
"p  c #18392F",
"a  c #27382A",
"s  c #194608",
"d  c #0B4010",
"f  c #374703",
"g  c #2E520F",
"h  c #3B6416",
"j  c #05453D",
"k  c #164637",
"l  c #104D2D",
"z  c #315631",
"x  c #3D6632",
"c  c #116038",
"v  c #464901",
"b  c #564A01",
"n  c #495603",
"m  c #555901",
"M  c #645803",
"N  c #7A5D00",
"B  c #4E6E16",
"V  c #686801",
"C  c #787604",
"Z  c #6D7309",
"A  c #4E6C31",
"S  c #4E6236",
"D  c #003442",
"F  c #013B43",
"G  c #003D4A",
"H  c #083A45",
"J  c #0A3C4C",
"K  c #024344",
"L  c #034B46",
"P  c #01444C",
"I  c #034B4B",
"U  c #0A4748",
"Y  c #154943",
"T  c #05554A",
"R  c #185748",
"E  c #004652",
"W  c #014A53",
"Q  c #014C5B",
"!  c #084C55",
"~  c #00535C",
"^  c #055755",
"/  c #135254",
"(  c #26524E",
")  c #19644B",
"_  c #056659",
"`  c #186757",
"'  c #0C7054",
"]  c #306E53",
"[  c #005562",
"{  c #015B64",
"}  c #075C68",
"|  c #1A5D63",
" . c #016264",
".. c #01636B",
"X. c #066969",
"o. c #016572",
"O. c #016C72",
"+. c #046A79",
"@. c #017375",
"#. c #02757B",
"$. c #017B7C",
"%. c #067A77",
"&. c #166E70",
"*. c #2F736F",
"=. c #235863",
"-. c #65774D",
";. c #4A756F",
":. c #43724C",
">. c #4D1701",
",. c #B05304",
"<. c #877C01",
"1. c #987804",
"2. c #916A04",
"3. c #F77C05",
"4. c #3E803E",
"5. c #6C8519",
"6. c #778D32",
"7. c #619137",
"8. c #2D8A54",
"9. c #02857B",
"0. c #0E8D76",
"q. c #35896A",
"w. c #2C9B66",
"e. c #6E8851",
"r. c #4E8B6E",
"t. c #719174",
"y. c #53B678",
"u. c #6DAE74",
"i. c #63934F",
"p. c #8D8E06",
"a. c #AF9306",
"s. c #B6A90E",
"d. c #8A9632",
"f. c #91A92C",
"g. c #9BA719",
"h. c #CD9002",
"j. c #D2B007",
"k. c #EDB107",
"l. c #E69F18",
"z. c #CDC70E",
"x. c #EFC60F",
"c. c #ECEC11",
"v. c #D7CC31",
"b. c #EDEC37",
"n. c #E8C93E",
"m. c #8B9559",
"M. c #839778",
"N. c #9CB15C",
"B. c #D8BE43",
"V. c #B5D052",
"C. c #8FC96F",
"Z. c #A1CC6B",
"A. c #D1CB5E",
"S. c #D2D679",
"D. c #D8E263",
"F. c #B6D536",
"G. c #017A85",
"H. c #137E86",
"J. c #247D87",
"K. c #018384",
"L. c #00858B",
"P. c #018B8C",
"I. c #098787",
"U. c #168688",
"Y. c #059588",
"T. c #018C92",
"R. c #028B9C",
"E. c #048493",
"W. c #029896",
"Q. c #179497",
"!. c #35979A",
"~. c #2C8B8F",
"^. c #03A697",
"/. c #12AF95",
"(. c #0293A3",
"). c #029BA8",
"_. c #0A98AA",
"`. c #2298A2",
"'. c #03A7A6",
"]. c #04B8A9",
"[. c #04A8B4",
"{. c #12AABA",
"}. c #01B7B8",
"|. c #18ADAC",
" X c #2FAAAC",
".X c #3CAE9B",
"XX c #4C8F90",
"oX c #799A86",
"OX c #699188",
"+X c #4AAF86",
"@X c #71AD94",
"#X c #55AAA5",
"$X c #4FAEAF",
"%X c #6AB0B2",
"&X c #409EA7",
"*X c #02C4BA",
"=X c #12CDB8",
"-X c #22C8A9",
";X c #73C98E",
":X c #4FC3BC",
">X c #69D5B6",
",X c #14B6C5",
"<X c #00BDC3",
"1X c #2CBBC7",
"2X c #7BBDC3",
"3X c #5FBEC4",
"4X c #04C7C6",
"5X c #01D7D7",
"6X c #0BCECA",
"7X c #37CAD5",
"8X c #30D3CD",
"9X c #0BE4D6",
"0X c #2BE5E0",
"qX c #4AD3D3",
"wX c #79C6CA",
"eX c #75D0CF",
"rX c #79E7D7",
"tX c #66E3D0",
"yX c #69DCE4",
"uX c #7ADCE3",
"iX c #70E4E7",
"pX c #4DE1DF",
"aX c #849E87",
"sX c #8BA78F",
"dX c #85B1A4",
"fX c #A3B69F",
"gX c #89CF83",
"hX c #B1D78D",
"jX c #91D9B2",
"kX c #B2D8AF",
"lX c #B6E8A1",
"zX c #CBD7B8",
"xX c #D3E7B3",
"cX c #EDF0B7",
"vX c #E2DD87",
"bX c #90CDD0",
"nX c #A4D0CF",
"mX c #93E7D5",
"MX c #AAE7D8",
"NX c #B5EAD7",
"BX c #B2E4C7",
"VX c #BBDEE2",
"CX c #91E8EC",
"ZX c #B8F4F7",
"AX c #ADEBE9",
"SX c #C8EBC9",
"DX c #C9F1D7",
"FX c #CEEECD",
"GX c #EBF6D2",
"HX c #C5E9EB",
"JX c #C9F8FA",
"KX c #D9FAFB",
"LX c #D3F6EB",
"PX c #E3FBFC",
"IX c #F7FCEB",
"UX c #D5DDC0",
/* pixels */
"                                                                                                                                ",
"                                                                                                                                ",
"                                                                                                                                ",
"                                                  8 e t e e t y E                                                               ",
"                                                r y t 7 e t y G ~ `.2XbXeXbXCX                                                  ",
"                                              e y U u . X $ 7 e F Q { o.G.H.!. X XeXCX3XE                                       ",
"                                          9 y i U u P * $ 8 8 r r y D P W Q { o.o.O.o.} W F u y y y U                           ",
"                                        y y U I F F y 9 t 9 r 8 e t y e y D D D F W ~ ~ P y y y y y r &                         ",
"                                      ~.P ! I F F t * 9 t t w 3 4 8 r e y y D D F P { %.U.`.X.t D w & &                         ",
"                                    $X} X.I K L q O = 9 t t u 9 5 8 r r y e y F F W X.I.Q.X.9 y r & & & &                       ",
"                                eX!...X.T L U , O + # q j j j K y y P P E E E E G G H D E e D r 3 & & $ %                       ",
"                              eXJ.&.X.! T Y , + @ @ ; < k k L ^ L T ~ ..{  .} } { X.} E ! G 8 3 3 % w $ $ &                     ",
"                            $X&.&.' R R k @ ; : : : l d k ) `  ._ ! @.@.@.@.G.L.E.T.G.E.+.G 5 5 $ J.1X# & $                     ",
"                          &XX.*.] z z g ; ; : d s s l l c :.] ' q.C.+X^.W.W.^./.'.R.1XJX XE r 3 6  XqXj = $                     ",
"                        ~.| r.] S S g ; ; s s g s g f.j.5.4.w.%.Y.].'.}.9X5X9X.X(.qXKXuXG.G 6 ! U &.:X!.% & 3                   ",
"                    wX&.*.r.-.-.e.2 @ : s g g h g.c.z.4.c 0.'.Y.'.}.4X6X4X5X[._.iXKXyXR.Q ( XX;.&._ $X$XJ 7 y                   ",
"                  %X=.*.oXt.M.m.a + : s n h 5.z.z.7.4.w.8.8.%.9.^.T.<X4X5X).[.CXKX7X(.J ;.dX@XOX*.&.~.>X*.r =.VX                ",
"                &./ r.aXM.M.e.- + > s h B f.c.F.C.i.w.8.' c @.9.%.L.}.4X(.,XCXJX1XG.D oXIXUXdXdXOX*.Q.$X:Xe o.HX                ",
"              D Y t.M.M.sX-.O + ; f h B g.c.V.C.u.y.w.' c T _ %.I.^.}.R.1XZXCX,XR.J %XIXFXIXFXdX@XqX/.#X$X%.G %XVX              ",
"          e r ( aXM.aXsXS O O - s h B d.b.V.C.u.y.w.] ) T j L O.Q.R.(.7XKXCX,XG.D 3XZXLXGXGXGXzXsX%Xq.*.wX XQ G.AX              ",
"        e 0 *.oXoXaXaXa . . @ : g B 7.b.V.Z.;X;Xr.] ` ^ I t F { P.).pXKXiX[.+.G <X0XAXJXNXDXSXcXkXoXOX;.#X$X| [ wX              ",
"      e y ~.#XOXsXt.< . . O ; s h B b.D.Z.C.;Xr.8.) ) T 9 u F ..(.uXKXpX).+.[ <X5X0XrXAXMXMXNXSXGXdX@X;.XX3XQ.E !.LX            ",
"    w t y ! &.XX;.# . . . + : s x f.b.Z.Z.;Xy.8.) T L 9 9 9 P +.yXPX7X(.o.} '.}.}.6XqXmXAXNXDXBXSXzXsXOX*.#X XW +.VX            ",
"  e y t u F P _ { ^ u 7 = ; q g x v.b.lX;X;Xq.] T j i 8 9 y G o.`.{.G.[ ..W.R.}.*X4X8XrXmXNXDXDXBXFXfXoX;.r.!.&.Q $XVX          ",
"  4 5 8 e E #. X,X[.).R.G.{ T R x b.D.gX@Xy.] ) L t 9 8 t y U ! Q [ W ..G.$.P.}.}.}.6XiXmXMXNXDXSXGXzXaX;.;.q.&.E G.HX          ",
"  4 4 4 5 G G.ZXKXZXyXqX,X[.(.E.+.] r.] r.w.) L u 8 9 t y H y y D e ~ #.O.@.T.'.<X*X=XpXmXMXNXDXUXcXGXsXaX;.*.=.J Q 2XVX        ",
"    4 8 r r Q (.1XiXZXKXPXZXiX7X{.G.W y y U K j t w t y U w r w 8 e [ #.O.$.P.(.}.4X=XpXtXMXNXFXDXUXGXfXaX;.=.( E W ~.HX        ",
"    4 5 Q.U.H.[ G.R.).,X7XyXZXPXKX,X..K y e e e t e u H w e r 5 e D E #.G.#.T.W.^.*X5XpXrXmXNXNXFXGXcXzXaX-.] ( U D [ bX        ",
"      3 ! `.|.|.X 5 G o.G.(.).{.1XR.I y e t y y y H u e w r 4 5 y F W ..L.K.L.W.W.'.}.8XrXnXBXSXFXGXS.GXt.e.] k Y F G !.VX      ",
"      5 4 U.`.|.! . . o 5 G { ..[ ! e 7 4 4 5 8 i u e r 8 7 7 0 F P ~ ..P.P.9.T.^.*X6X8XtXmXBXBXFXxXA.cXm.e.( k p u e G J.      ",
"        5 ! Q.Q.Q.# . . . o 7 t K j ` q 4 4 4 4 5 r e r 0 0 0 9 D P ~ ..G. .G.W.9.}.6X8XrXmXkXkXxXzXA.vXm.-.x p i u 7 4 3 5     ",
"        8 r I.Q.|.H . . . . $ * 9 u ' -X^ y 5 3 4 r r r r 9 r e F P W @.T._ T.P.K./.9X0XrXjXkXlXxXvXB.n.m.A x l 0 q 8 X % %     ",
"          *.[ Q.Q.Q.o . . . . $ 7 9 9 _ T ^ 0.9.3 5 w 8 5 t t y F F o.P.W.$.$.$.L.'.=X8X>XjXkXhXzXS.v.n.d.-.h < , 9 9 $ . .     ",
"          2XE G.I.Q.j . . . . . = 7 9 u 9._ ^.*XD 3 7 8 5 r T u F o.L.P.@.P.K.$.W.'.]. X>XjXhXhXS.v.k.vXd.d.-.z p 0 9 3 . . X   ",
"            ~.Q G.%.H.. . . . . X & 8 t j _ ].^.9.3 5 7 5 3 I W @.P.K.O.o.#.K.K.5XT.W.-XtXjXZ.A.v.v.k.D.p.6.A S k k 7 7 X . .   ",
"            2X| o.X.#.t . . . . . X & 9 u ^ ^.^.^.F 3 5 7 3 r P.P.K. . .@.#.G.E.<X}.Y.|.8Xu.N.F.j.j.x.s.p.V B g l l 0 4 $ . . X ",
"              XXQ ~ ~ ! . . . . . . $ 7 t I 9.^.^.P.& 7 5 5 3 T.K.X.O.#.W...#.K.].4XT.9X+Xe.f.s.x.k.x.p.p.V n 1 > ; q = * . . . ",
"              bXQ P F F * . . . . . X 3 t T 9.Y.W.*Xu r G J e E W.'.[.L.+.{ L.#.$.Y.W.|.i.i.g.j.k.k.x.p.1.V b 2 > : i 7 = . . . ",
"                %XG y 7 8 . . O . O X & 9 L ^.9.^.^.$.G +.`.o.e }.5XK.O.@.X.@.X.X.9.I.7.d.f.p.j.k.x.h.p.C V b 2 2 < i , . . .   ",
"                %X&.D 5 3 o . . O O . o 7 q ' 9.Y.Y.}.o.1XPX{.[ O.].^.$.$.K.@.$.X.' ) 7.d.5.a.k.k.k.C Z v > ; 1 f < = . X .     ",
"                  XXG r & & X . . . O . = 7 u 0.0.^.*X^.T.JXyXG.D }.].}.P.@. .^ T _ c h 5.Z p.k.k.g.Z m 1 ; 1 v 1 - . . .       ",
"                  nX&.e 3 & X . . . O . o 6 i L 0.-X*X*XR.qXJX{.Q G.5X[.[.P._ ~ T j l B Z Z j.l.j.C C n > v b v - . . .         ",
"                    #XG 6 & $ . . . O O O , 0 X.Y./.^.*X'.{.JXqXG.D }.<X).[.O.^ c l h B V 1.l.n.Z V v > b b v > , , &           ",
"                    bX=.r 3 % X O O - O O , ` &.%.' /./.].R.yXJX[.Q L.}.'.}.[._ j c g B N 3.k.Z m n 1 M M v > q &.`             ",
"                      Q.8 & % $ . O . O , U ` / T ` &././.'.[.KXqXG.D <XR.[.L.L c d s f 3.z.V n g f 2.M m d j 0.HX              ",
"                      8 r & % $ O . . * H / i i k R U q.0.|.R.yXZX{.G G.).).K u q d > ,.,.n v h f 1.2.M d j !.LX                ",
"                        5 3 % % % . , F U p = 0 9 0 e / r.+XQ.,XJX7XG.D +.{ t 9 ; 1 ,.2.s 1 1 2 a.a.C > c &XLX                  ",
"                        & 5 X X X & F H & % = * X o 8 e R u.+XR.yXZX_.Q F y 8 , , >.- > s @ v h.h.p.d T &XKX                    ",
"                          6 $ . . o i $ X $ o . . . & 7 w R m.t.,XPXqXG.y 9 * = + + + # . b k.j.p.d T %XPX                      ",
"                          & 4 X X = 4 6 & X . . . . . $ * 9 H *.R.CXCX(.Q 5 % . . . . X b j.j.C , T >X                          ",
"                            3 * = O o D F t 7 = . . . . o & 3 F G.,XJX,X{ 5 . . . . . M j.s.B q _ wX                            ",
"                            $ 3 & o . 3 y u y p a < # . . X X 3 J G.CXCX} 8 . . . . x V.N.:.9 ~ bX                              ",
"                              & 5 5 4 3 8 D G F p a a a a # . . & Q E.~.G 8 % . X *.;X;Xz & / nX                                ",
"                                  3 3 5 r r e G K U p p a k k i 8 & G G r 3 % o 0.qX:XY X 7 XX                                  ",
"                                        * &.#X*.Q G K I U u K ^ +.I.E r & % . / 0X8XU . % *                                     ",
"                                              nX2X%X&.~ ! W W ~ o.H.U.3 4 X % X  Xw . % %                                       ",
"                                                    bXbX&XJ.Q G P X.|.! & % X X o . X X                                         ",
"                                                          bXwXXXy 3 5 U 4 & X X X X X                                           ",
"                                                                e 8 5 3 3 4 X X X X                                             ",
"                                                                      & 3 4 3 X X                                               ",
"                                                                            3 %                                                 ",
"                                                                                                                                ",
"                                                                                                                                ",
"                                                                                                                                "
};
