/* XPM */
static char *result[] = {
/* columns rows colors chars-per-pixel */
"32 32 105 2 ",
"   c #3F2567",
".  c #3E2668",
"X  c #3B2B69",
"o  c #2F3F6D",
"O  c #35356B",
"+  c #38306A",
"@  c #323B6C",
"#  c #39386D",
"$  c #3E3B70",
"%  c #441D66",
"&  c #412267",
"*  c #412568",
"=  c #442A6B",
"-  c #4A3F76",
";  c #513F78",
":  c #1F5773",
">  c #1D5B74",
",  c #2C436E",
"<  c #264D6F",
"1  c #29486F",
"2  c #264D71",
"3  c #284970",
"4  c #334672",
"5  c #3C4B77",
"6  c #225472",
"7  c #2D5676",
"8  c #295A77",
"9  c #3C5C7E",
"0  c #1B6075",
"q  c #2C617B",
"w  c #34637D",
"e  c #424D79",
"r  c #55437B",
"t  c #57497E",
"y  c #396881",
"u  c #495C82",
"i  c #655387",
"p  c #6A5B8B",
"a  c #466384",
"s  c #406A85",
"d  c #57658A",
"f  c #487A8E",
"g  c #5E7191",
"h  c #567B93",
"j  c #5C7B95",
"k  c #60608A",
"l  c #6B6690",
"z  c #6F6C95",
"x  c #756794",
"c  c #736B95",
"v  c #786D97",
"b  c #7D6B98",
"n  c #6D7397",
"m  c #617895",
"M  c #77769B",
"N  c #807DA0",
"B  c #598497",
"V  c #568798",
"C  c #5E8B9C",
"Z  c #63839A",
"A  c #6C809C",
"S  c #618F9E",
"D  c #7586A1",
"F  c #7E85A3",
"G  c #6D95A4",
"H  c #7A99AA",
"J  c #8C8AAA",
"K  c #8391AA",
"L  c #8B94AE",
"P  c #939CB4",
"I  c #9B9BB6",
"U  c #A599B8",
"Y  c #97A2B7",
"T  c #97A4B8",
"R  c #9DA4BA",
"E  c #A1A3BB",
"W  c #A8A0BC",
"Q  c #A4AABF",
"!  c #A9A8BF",
"~  c #ADABC1",
"^  c #B8AFC7",
"/  c #BBB7CB",
"(  c #B5BBCB",
")  c #BCBECE",
"_  c #C5BDD1",
"`  c #BAC1CF",
"'  c #C1C1D1",
"]  c #C9C4D6",
"[  c #C6CAD7",
"{  c #CDCDDA",
"}  c #D1CFDC",
"|  c #CCD4DD",
" . c #D7D6E1",
".. c #D8D7E2",
"X. c #E0DFE8",
"o. c #E2E2EA",
"O. c #E8E6ED",
"+. c #ECEEF2",
"@. c #F0EFF4",
"#. c #EEF1F4",
"$. c #F3F3F6",
"%. c #F6F6F8",
"&. c #F7F8F9",
"*. c #FFFFFF",
"=. c None",
/* pixels */
"=.=.=.=.=.=.=.=.=.=.=.=.% % % % & & & * =.=.=.=.=.=.=.=.=.=.=.=.",
"=.=.=.=.=.=.=.=.=.% % % % % & & & & *     X X =.=.=.=.=.=.=.=.=.",
"=.=.=.=.=.=.=.% % % % % & % & & * b ^ i X X X X X =.=.=.=.=.=.=.",
"=.=.=.=.=.=.% % % % % % & & & = _ *.*.x X X + X + O =.=.=.=.=.=.",
"=.=.=.=.=.% % % % % & & &     U *.*.*.x X X + + + O O =.=.=.=.=.",
"=.=.=.=.% % % % % & & &     = $.*.*.*.c X O X O O O O @ =.=.=.=.",
"=.=.=.% % % % % & & & * . . r *.*.*.*.c O + O O O @ @ @ @ =.=.=.",
"=.=.% % % % % & &     .   X t *.*.*.*.l O O O O # @ @ @ @ , =.=.",
"=.=.% & % & &   & . . X . X t *.*.*.#.# O O O @ @ @ o o o , =.=.",
"=.% % & & & &   . . . X . X - ! ~ ! M p O O @ @ @ o o o , , , =.",
"=.% & & &   . . X p U ] { } { { { } %.n @ ( { | [ u o , , 1 1 =.",
"=.& & &   . . ; ] *.*.*.*.*.*.*.*.*.*.n e *.*.*.*.D , , , , 3 =.",
"& * *     X r O.*.*.*.*.*.*.*.*.*.*.*.n 5 *.*.*.*.D , , 3 3 3 2 ",
"& * .     X } *.*.*.*.*.*.*.*.*.*.*.*.n 5 *.*.*.*.D 3 3 3 2 2 2 ",
"    X X X v *.*.*.&...' ) ) ) ) ) ) ` d 5 ` ` ` ( 9 3 3 < 2 6 2 ",
"  X . X X / *.@.J z # # # @ @ @ o o o , , , , , < 3 3 2 2 2 6 6 ",
"X X X + + o.X.c  .) O @ @ @ @ @ 5 L L L K , 1 3 3 2 2 2 6 2 6 6 ",
"X X X X + O.M %.*.E @ @ @ @ , o P *.*.*.#.3 3 2 2 2 2 2 6 6 6 6 ",
"X X + + + I o.*.*.E @ @ @ , @ , Y *.*.*.+.3 2 2 2 2 6 6 6 6 : 6 ",
"+ + + + + L *.*.*.R @ @ o , , , T *.*.*.#.2 2 2 6 6 6 6 6 6 > > ",
"=.+ O O O I *.*.*.Q o o , , , 1 A &.&.*.+.2 2 6 6 6 6 6 > > > =.",
"=.O O O @ E *.*.*.o.4 , , , 1 1 3 3 2 2 2 6 6 6 6 6 > 6 6 > > =.",
"=.O @ @ @ F *.*.*.*.[ g u a a a a a a 7 6 a y s y 6 > > > > > =.",
"=.=.@ @ @ 5 %.*.*.*.*.*.*.*.*.*.*.*.*.h w *.*.*.*.V 6 > > > =.=.",
"=.=.@ , @ @ L *.*.*.*.*.*.*.*.*.*.*.#.7 w *.*.*.*.G > > 0 0 =.=.",
"=.=.=.@ , , , T *.*.*.*.*.*.*.*.*.*.H : w *.*.*.*.G > > 0 =.=.=.",
"=.=.=.=., , , 1 j | *.*.*.*.*.*.#.H : : q *.*.*.*.S > 0 =.=.=.=.",
"=.=.=.=.=., 1 3 3 3 9 j Z Z Z h 8 6 : : > f C C V 0 0 =.=.=.=.=.",
"=.=.=.=.=.=.3 3 2 2 2 2 6 6 6 6 > : > 6 > > > > > 0 =.=.=.=.=.=.",
"=.=.=.=.=.=.=.< 2 2 6 6 6 6 6 6 > : > > > > 0 0 0 =.=.=.=.=.=.=.",
"=.=.=.=.=.=.=.=.=.6 6 6 6 : : > > > > > 0 0 0 =.=.=.=.=.=.=.=.=.",
"=.=.=.=.=.=.=.=.=.=.=.=.6 > > > > > > 0 =.=.=.=.=.=.=.=.=.=.=.=."
};
