/* XPM */
static char *_2f49bf5d2aa4ce5dae10943694061fd[] = {
/* columns rows colors chars-per-pixel */
"32 32 178 2 ",
"   c #4F064A",
".  c #50064A",
"X  c #50074A",
"o  c #52094C",
"O  c #520A4D",
"+  c #540D4F",
"@  c #550E50",
"#  c #560F50",
"$  c #560F51",
"%  c #561050",
"&  c #561051",
"*  c #571051",
"=  c #571052",
"-  c #571152",
";  c #571252",
":  c #581152",
">  c #581252",
",  c #581253",
"<  c #581353",
"1  c #591353",
"2  c #591354",
"3  c #591454",
"4  c #5A1454",
"5  c #5A1554",
"6  c #5A1455",
"7  c #5A1555",
"8  c #5A1655",
"9  c #5B1656",
"0  c #5B1756",
"q  c #5C1756",
"w  c #5C1757",
"e  c #5C1857",
"r  c #5D1957",
"t  c #5D1958",
"y  c #5D1A58",
"u  c #5D1A59",
"i  c #5E1A58",
"p  c #5E1A59",
"a  c #5E1B59",
"s  c #5F1B59",
"d  c #5E1B5A",
"f  c #5F1B5A",
"g  c #5E1C59",
"h  c #5F1C5A",
"j  c #5F1D5A",
"k  c #5F1D5B",
"l  c #601D5B",
"z  c #601E5B",
"x  c #611E5C",
"c  c #611F5C",
"v  c #621F5D",
"b  c #62205D",
"n  c #62215D",
"m  c #63225E",
"M  c #64225E",
"N  c #64235F",
"B  c #652560",
"V  c #662561",
"C  c #662661",
"Z  c #672762",
"A  c #672863",
"S  c #692A64",
"D  c #692B65",
"F  c #6A2B65",
"G  c #6B2C65",
"H  c #6A2C66",
"J  c #6B2D66",
"K  c #6B2E67",
"L  c #6C2E67",
"P  c #6C2E68",
"I  c #6C2F68",
"U  c #6D2F68",
"Y  c #6E3169",
"T  c #6E316A",
"R  c #6E326A",
"E  c #6F336A",
"W  c #6F336B",
"Q  c #70336B",
"!  c #71356C",
"~  c #71366D",
"^  c #73396F",
"/  c #74396F",
"(  c #753A70",
")  c #753B70",
"_  c #753B71",
"`  c #773D72",
"'  c #773E73",
"]  c #773F73",
"[  c #783E73",
"{  c #783F74",
"}  c #794174",
"|  c #794175",
" . c #7A4276",
".. c #7A4376",
"X. c #7B4377",
"o. c #7A4476",
"O. c #7B4477",
"+. c #7B4577",
"@. c #7C4577",
"#. c #7D4779",
"$. c #804A7C",
"%. c #804B7C",
"&. c #814C7D",
"*. c #824D7D",
"=. c #834F7F",
"-. c #845080",
";. c #845180",
":. c #865483",
">. c #875684",
",. c #885785",
"<. c #8A5886",
"1. c #8A5986",
"2. c #8B5A87",
"3. c #8C5C88",
"4. c #8E5F8B",
"5. c #90628D",
"6. c #92658F",
"7. c #93668F",
"8. c #966A93",
"9. c #986D95",
"0. c #996E96",
"q. c #996F96",
"w. c #9B7198",
"e. c #9C7298",
"r. c #9E769B",
"t. c #A0789D",
"y. c #A47EA1",
"u. c #A57FA2",
"i. c #A884A6",
"p. c #AA87A8",
"a. c #AC8AA9",
"s. c #AC89AA",
"d. c #AD8BAB",
"f. c #AE8CAB",
"g. c #B292AF",
"h. c #B99BB6",
"j. c #B99BB7",
"k. c #BA9DB8",
"l. c #BB9EB9",
"z. c #BB9FB9",
"x. c #C0A5BE",
"c. c #C5ADC3",
"v. c #CAB3C7",
"b. c #CAB3C8",
"n. c #CEB9CC",
"m. c #D1BED0",
"M. c #D3C1D2",
"N. c #D5C4D4",
"B. c #D9C9D8",
"V. c #DBCCDA",
"C. c #DDCEDC",
"Z. c #E1D4E0",
"A. c #E2D6E1",
"S. c #E3D8E3",
"D. c #E4D8E3",
"F. c #E4D9E3",
"G. c #E5D9E3",
"H. c #E5D9E4",
"J. c #E5DBE5",
"K. c #E6DBE5",
"L. c #E7DCE6",
"P. c #E7DDE6",
"I. c #EAE1E9",
"U. c #F1EBF1",
"Y. c #F2EDF2",
"T. c #F6F2F5",
"R. c #F6F3F6",
"E. c #F7F4F7",
"W. c #F8F4F7",
"Q. c #FBF9FB",
"!. c #FCFAFB",
"~. c #FCFAFC",
"^. c #FCFBFC",
"/. c #FDFCFD",
"(. c #FDFDFD",
"). c #FEFEFE",
"_. c gray100",
"`. c None",
/* pixels */
"`.`.`.`.`.`.`.`.`.`.`.`.`.`.`.`.`.`.`.`.`.`.`.`.`.`.`.`.`.`.`.`.",
"`.`.`.`.`.`.`.`.`.`.`.`.`.`.`.`.`.`.`.`.`.`.`.`.`.`.`.`.`.`.`.`.",
"`.`.`.`.`.`.`.`.`.`.`.`.`.`.`.`.`.`.`.`.`.`.`.`.`.`.`.`.`.`.`.`.",
"`.`.`.`.`.`.`.`.`.`.`.`.`.`.`.`.`.`.`.`.`.`.`.`.`.`.`.`.`.`.`.`.",
"`.`.`.`.`.`.`.`.`.`.`.`.`.^ Z b n S { `.`.`.`.`.`.`.`.`.`.`.`.`.",
"`.`.`.`.`.`.`.`.`.`.#.c 8 r r f f f 8 8 Z 2.`.`.`.`.`.`.`.`.`.`.",
"`.`.`.`.`.`.`.`.`.n < f h h h h f h h h q , P `.`.`.`.`.`.`.`.`.",
"`.`.`.`.`.`.`.0.; r h h h h h f 8 8 h h f h 8 f `.`.`.`.`.`.`.`.",
"`.`.`.`.`.`.`.8 f f h h h h f n Y L h h h h h 8 n `.`.`.`.`.`.`.",
"`.`.`.`.`.`.N 8 f f h h h h < } E.C.c r h h h h > ' `.`.`.`.`.`.",
"`.`.`.`.`.3.$ h h h h h h h > +._.H.c r h h h h h $ `.`.`.`.`.`.",
"`.`.`.`.`.h f h h h h r r f >  ._.H.h r h h h h h 8 Q `.`.`.`.`.",
"`.`.`.`.0.; h h f ; 8 h c c q +._.G.n h f h h h h h 8 `.`.`.`.`.",
"`.`.`.`. .8 f r 8 q.M.S.H.H.G.I._.Q.P.2.  f h h h h 2 6.`.`.`.`.",
"`.`.`.`.Z f f 8 j._._._.^._.Q.^._._._.s.;.Z $ 2 h h q  .`.`.`.`.",
"`.`.`.`.c f > *._.E.0.Y Y W F >._.P.Z g._.( p.t.8 h 8 ( `.`.`.`.",
"`.`.`.`.c f $ s._.l.. 8 q 8 + ' _.U.s.7.5.*.Y.n.2 f 8 ( `.`.`.`.",
"`.`.`.`.S f > x._.r.$ f h h 8  .^._._.0.n _.j.; 8 h 8 +.`.`.`.`.",
"`.`.`.`.#.8 $ x._.r.$ f h h 8  ._.Q.S.3.f y.%.*. .8 8 `.`.`.`.`.",
"`.`.`.`.`.> $ f._.l.  8 q 8 o -._.V.r f ( F ; B.i.$ f `.`.`.`.`.",
"`.`.`.`.`.N ; %._.T.e.! W !  .N._.T.' o v.c.2 ^ n 2 { `.`.`.`.`.",
"`.`.`.`.`.8.$ > l._._._._._._._.^.y.F 8 Y P Z 2.r ; `.`.`.`.`.`.",
"`.`.`.`.`.`.Q ; q w.m.S.S.S.Z.b.>.+ r c r r f e $ ,.`.`.`.`.`.`.",
"`.`.`.`.`.`.`.f 8 > < f k h f ; ; f h h f h f ; Y `.`.`.`.`.`.`.",
"`.`.`.`.`.`.`.`.h 8 f f f f f f h h h h h h 2 S `.`.`.`.`.`.`.`.",
"`.`.`.`.`.`.`.`.`.Y 2 w f f f f h h h f 8 8 +.`.`.`.`.`.`.`.`.`.",
"`.`.`.`.`.`.`.`.`.`.`.S 8 8 8 f r 8 8 f Y `.`.`.`.`.`.`.`.`.`.`.",
"`.`.`.`.`.`.`.`.`.`.`.`.`.%.' S I ' `.`.`.`.`.`.`.`.`.`.`.`.`.`.",
"`.`.`.`.`.`.`.`.`.`.`.`.`.`.`.`.`.`.`.`.`.`.`.`.`.`.`.`.`.`.`.`.",
"`.`.`.`.`.`.`.`.`.`.`.`.`.`.`.`.`.`.`.`.`.`.`.`.`.`.`.`.`.`.`.`.",
"`.`.`.`.`.`.`.`.`.`.`.`.`.`.`.`.`.`.`.`.`.`.`.`.`.`.`.`.`.`.`.`.",
"`.`.`.`.`.`.`.`.`.`.`.`.`.`.`.`.`.`.`.`.`.`.`.`.`.`.`.`.`.`.`.`."
};
