/* XPM */
static char *_b6a426d391249f0e8b56b52c8ca7279[] = {
/* columns rows colors chars-per-pixel */
"48 48 68 1 ",
"  c #43003D",
". c #470041",
"X c #50064A",
"o c #530B4E",
"O c #550E50",
"+ c #571152",
"@ c #5A1555",
"# c #5C1857",
"$ c #5C1758",
"% c #5F1C5A",
"& c #601D5B",
"* c #63215E",
"= c #662561",
"- c #682763",
"; c #672863",
": c #692B65",
"> c #6C2F68",
", c #6F326A",
"< c #71356D",
"1 c #73396F",
"2 c #763D72",
"3 c #783F74",
"4 c #7A4276",
"5 c #7C4578",
"6 c #7E497A",
"7 c #824D7E",
"8 c #83507F",
"9 c #855382",
"0 c #885684",
"q c #8B5987",
"w c #8D5D89",
"e c #8F608C",
"r c #90628D",
"t c #966A93",
"y c #9A6F96",
"u c #9D749A",
"i c #A1799E",
"p c #A47DA1",
"a c #AA86A7",
"s c #AB87A8",
"d c #AD8BAB",
"f c #B191AF",
"g c #B596B3",
"h c #B79AB5",
"j c #B99BB7",
"k c #BB9FBA",
"l c #BEA3BC",
"z c #C1A7BF",
"x c #C1A8BF",
"c c #C4ABC2",
"v c #CBB4C9",
"b c #CEBACD",
"n c #D5C3D3",
"m c #D8C9D7",
"M c #DBCCDA",
"N c #DDD0DD",
"B c #E1D3E0",
"V c #E6DBE5",
"C c #E8DEE7",
"Z c #EBE3EB",
"A c #EFE9EF",
"S c #EFEAF0",
"D c #F1ECF1",
"F c #F6F2F5",
"G c #F8F4F7",
"H c #F8F5F8",
"J c #FFFFFF",
"K c None",
/* pixels */
"KKKKKKKKKKKKKKKKKKKKKKKKKKKKKKKKKKKKKKKKKKKKKKKK",
"KKKKKKKKKKKKKKKKKKKKKKKKKKKKKKKKKKKKKKKKKKKKKKKK",
"KKKKKKKKKKKKKKKKKKKKKKKKKKKKKKKKKKKKKKKKKKKKKKKK",
"KKKKKKKKKKKKKKKKKKKKKKKKKKKKKKKKKKKKKKKKKKKKKKKK",
"KKKKKKKKKKKKKKKKKKK6<:***=<7KKKKKKKKKKKKKKKKKKKK",
"KKKKKKKKKKKKKKKK6=@@@%%%#&#@@-7KKKKKKKKKKKKKKKKK",
"KKKKKKKKKKKKKK4++%%%%%%&&&%%&#+%7KKKKKKKKKKKKKKK",
"KKKKKKKKKKKKw%+%%%%%%%%%%&%%%%%#O*rKKKKKKKKKKKKK",
"KKKKKKKKKKK4+@&%%%&%%%%%%&%%%%%&&@+5KKKKKKKKKKKK",
"KKKKKKKKKK-+%%%%%%%%%%%%&#&%%%%%%&%o2KKKKKKKKKKK",
"KKKKKKKKK,O%%%%%%%%%%%%%#%#&%%%%%%%%O3KKKKKKKKKK",
"KKKKKKKK7o%%&%%%%&%%%&%&***&%&%%%%%&%O9KKKKKKKKK",
"KKKKKKKyo%&%%%%%%%%&%%@aADf%@%%%%%%%%%+iKKKKKKKK",
"KKKKKKK#@%%%%%&%%%%%%##hJJc&#%%&%&%%%&@*KKKKKKKK",
"KKKKKK7o&%%%%%%%%&%%&##gJJz##%%%%%%%%%%@0KKKKKKK",
"KKKKKK+%%%%%&%%%%%%%%#@gJJx%@%%%%%%%%%&@&KKKKKKK",
"KKKKK9O&%%%%%%&&&%%%%$$gJJz%@&&%%%%%%%%%+wKKKKKK",
"KKKKK*#%&%%%&&@++++++oXfJJlOX#%%%%%&%%&%+1KKKKKK",
"KKKKK+%&%%%&+o&>11<11<<lJJv21*%%&%%%%%%%#-5KKKKK",
"KKKK0@%%%%%+<gNCZZZZZZZFJJHZZ2#%%%%%%&%%%&*KKKKK",
"KKKK1#%%%&+0ZJJJJJJJJJJJJJJJJ1o+%%%%%%%%%%%KKKKK",
"KKKK-#%%&O4AJJJFFFFFFFFHJJJGFuit=@@+%&%%%%&KKKKK",
"KKKK*%%%%+vJJHz82223221zJJb71cJS,;re:#%%%%%KKKKK",
"KKKK&%%%o2ZJJjXo++++++ofJJlo fSm+eJJ0@%&%%%KKKKK",
"KKKK*%%%XtFJF<O&&&&%%%$gJJVlh877:iJJ9+%%%%&KKKKK",
"KKKK;%%&XaJJV&#&%%%%%#$gJJJJJ2 4MZje>#%%&%%KKKKK",
"KKKK2#%%odJJm#%#%%%%%@$gJJJJJ4otJJe +#&%%%&KKKKK",
"KKKK9+%%XdJJm#%&%%%%%%$gJJJJJ6O6ll6#-*%%&&*KKKKK",
"KKKKK@%%XpJJC*$%%%%&%#@jJJnee:##@#osZp+%@-6KKKKK",
"KKKKK-@&XeFJH5o%%%%%%+%vJJfoO#=2,$XgJs+%+2KKKKKK",
"KKKKK0+&+,CJJc$+@+@+@+9HJJc*#+8JM=+:4:%%@wKKKKKK",
"KKKKKK@%%OlJJJny0000wsZJJJJe+@6Cv*@7=@%@=KKKKKKK",
"KKKKKK9X*+,BJJJJJJJJJJJJJbi<#%*>;#%j7@%+0KKKKKKK",
"KKKKKKK%+&O4nJJJJJJJJJJJb>.#%%#+@%%*&%@*KKKKKKKK",
"KKKKKKKiX%&O=uznNMMMMmci*O&&%%%&%%%#%%+sKKKKKKKK",
"KKKKKKKK7X%%+O#-::::::&O+&#&%%%%%%%%&o9KKKKKKKKK",
"KKKKKKKKK2O&&%++++++++@%&&%&%%%%%%%&O4KKKKKKKKKK",
"KKKKKKKKKK1+%%&&%&%*&%%%%%%%%%%%%%%+2KKKKKKKKKKK",
"KKKKKKKKKKK4#$&&%%%%%%%%%&%%%&%%%#@2KKKKKKKKKKKK",
"KKKKKKKKKKKKq*+#%%%&%%&%%%%%%%%##*tKKKKKKKKKKKKK",
"KKKKKKKKKKKKKK4*@@#%%%%%%%%%#@@=2KKKKKKKKKKKKKKK",
"KKKKKKKKKKKKKKKK6>*&%%%%%%%&*<7KKKKKKKKKKKKKKKKK",
"KKKKKKKKKKKKKKKKKK<&%&%%%&%*2KKKKKKKKKKKKKKKKKKK",
"KKKKKKKKKKKKKKKKKKKKKKKKKKKKKKKKKKKKKKKKKKKKKKKK",
"KKKKKKKKKKKKKKKKKKKKKKKKKKKKKKKKKKKKKKKKKKKKKKKK",
"KKKKKKKKKKKKKKKKKKKKKKKKKKKKKKKKKKKKKKKKKKKKKKKK",
"KKKKKKKKKKKKKKKKKKKKKKKKKKKKKKKKKKKKKKKKKKKKKKKK",
"KKKKKKKKKKKKKKKKKKKKKKKKKKKKKKKKKKKKKKKKKKKKKKKK"
};
