/* XPM */
static char *_a45b47587844d7388dafac01e5bf9b8RcKqgHqe1N8Vxnvq[] = {
/* columns rows colors chars-per-pixel */
"16 16 155 2 ",
"   c None",
".  c #000102",
"X  c #010407",
"o  c #010607",
"O  c #070803",
"+  c #000308",
"@  c #020709",
"#  c #02050F",
"$  c #040909",
"%  c #06160D",
"&  c #161E0C",
"*  c #000F15",
"=  c #000D19",
"-  c #021115",
";  c #021416",
":  c #001219",
">  c #00131A",
",  c #01121B",
"<  c #01151E",
"1  c #021C1F",
"2  c #092207",
"3  c #173E09",
"4  c #0E2C14",
"5  c #022318",
"6  c #2E3F04",
"7  c #323E0F",
"8  c #011821",
"9  c #001925",
"0  c #001F26",
"q  c #002425",
"w  c #05272A",
"e  c #00252C",
"r  c #00252E",
"t  c #02282D",
"y  c #082F29",
"u  c #18312E",
"i  c #002E35",
"p  c #022E36",
"a  c #033034",
"s  c #023337",
"d  c #053637",
"f  c #083030",
"g  c #093735",
"h  c #0A3833",
"j  c #023039",
"k  c #03353A",
"l  c #01363E",
"z  c #053E3B",
"x  c #02383E",
"c  c #345411",
"v  c #195A2B",
"b  c #27512E",
"n  c #22403F",
"m  c #505401",
"M  c #595807",
"N  c #436C1A",
"B  c #606309",
"V  c #6D6C08",
"C  c #737B1B",
"Z  c #5F7326",
"A  c #003A41",
"S  c #053942",
"D  c #003D44",
"F  c #064641",
"G  c #0A4442",
"H  c #014448",
"J  c #00444D",
"K  c #155A49",
"L  c #044851",
"P  c #004D57",
"I  c #004E57",
"U  c #074F54",
"Y  c #0D4D56",
"T  c #035059",
"R  c #0B5059",
"E  c #005A5F",
"W  c #085B5E",
"Q  c #185250",
"!  c #1C5E51",
"~  c #135159",
"^  c #1E545B",
"/  c #1E5E5E",
"(  c #355449",
")  c #02675C",
"_  c #0E615C",
"`  c #06685B",
"'  c #207A5B",
"]  c #155F6A",
"[  c #00696E",
"{  c #15666F",
"}  c #017271",
"|  c #007277",
" . c #007D74",
".. c #017B7F",
"X. c #107277",
"o. c #23736D",
"O. c #207779",
"+. c #247F7E",
"@. c #30717A",
"#. c #495C40",
"$. c #4D6F48",
"%. c #45746A",
"&. c #3E876B",
"*. c #4D9B53",
"=. c #478068",
"-. c #458879",
";. c #598F73",
":. c #5F8778",
">. c #72B572",
",. c #A9880D",
"<. c #93A42B",
"1. c #8DA63A",
"2. c #8FB033",
"3. c #C9A506",
"4. c #D7C73E",
"5. c #007F82",
"6. c #1D7982",
"7. c #2F7680",
"8. c #267C82",
"9. c #2C7881",
"0. c #018386",
"q. c #008489",
"w. c #129383",
"e. c #159B8E",
"r. c #009294",
"t. c #009098",
"y. c #10929C",
"u. c #338887",
"i. c #3F958D",
"p. c #07A997",
"a. c #2DA29B",
"s. c #3797A2",
"d. c #0DA7A7",
"f. c #09ACA9",
"g. c #0BB0A9",
"h. c #12BBB5",
"j. c #41838A",
"k. c #55A5AD",
"l. c #44B7BF",
"z. c #57B6BC",
"x. c #39B6C1",
"c. c #52BFC7",
"v. c #16CBC6",
"b. c #48C0CB",
"n. c #52C0CA",
"m. c #47D6CE",
"M. c #63C6CD",
"N. c #92B59E",
"B. c #8FCB90",
"V. c #B2CAB4",
"C. c #D9DD91",
"Z. c #D0E3BF",
"A. c #9EE1C3",
"S. c #A9E8D6",
"D. c #BCECD7",
/* pixels */
"                                ",
"          k s e R 9.6.A         ",
"        O.F 5 z l J T U <       ",
"      -.b 3 N ' e.f.l.~ +.8     ",
"    :.#.c 2.*.` d.n.k.V.j.u.    ",
"  / ( 2 1.>.K H x.y.m.D.N.u.    ",
"9 { b.z.&.! s j I q.v.S.Z.%.j.  ",
"  X.w D _ r p t I 0.h.A.C.$.d   ",
"  7.W . q  .p x [ ..g.B.4.Z y X ",
"    Y @ @ ) } ] r.| w.<.3.m 4 X ",
"    @.* O h p.M.t.0.v ,.V 6 %   ",
"      : ; f G a.s.E 7 M B =.    ",
"      : - 1 $ u c.0 & C ;.      ",
"          ^ Q g L : o.n         ",
"                S = #           ",
"                                "
};
